<svg width="499" height="571" fill="none" xmlns="http://www.w3.org/2000/svg"><g clip-path="url(#clip0)"><path fill-rule="evenodd" clip-rule="evenodd" d="M4.91432 452.174C-17.5101 383.617 55.6959 320.63 60.5349 247.394 65.6187 170.452-11.0473 80.8 33.2163 23.8373 77.6105-33.2936 159.754 34.3693 225.553 35.0325c46.566.4694 91.596-23.9352 136.12-7.8844 48.4 17.4482 96.741 48.3006 120.989 100.5719 24.029 51.801 15.359 114.659 5.716 172.569-8.898 53.432-30.001 100.78-58.396 143.778-30.516 46.209-63.445 92.166-110.329 111.718-50.938 21.242-106.12 17.383-158.165.251C102.34 536.564 26.97 519.605 4.91432 452.174z" fill="#F2F1F1"/><path d="M287.79 481.893c-29.269-4.632-64.563-.579-78.829 8.975-14.388 9.554-2.213 21.135 26.932 25.767 29.269 4.633 64.563.579 78.829-8.975 14.388-9.699 2.213-21.135-26.932-25.767z" fill="#3A3A3A"/><path d="M208.838 496.803c14.389-9.554 49.683-13.607 78.829-8.975 17.954 2.895 29.514 8.252 32.342 14.331 3.936-8.106-8.485-16.502-32.342-20.266-29.269-4.632-64.563-.579-78.829 8.975-5.534 3.619-7.132 7.672-5.288 11.436.861-1.882 2.706-3.764 5.288-5.501z" fill="#B3B3B3"/><path d="M405.6 352.043l-83.01 1.303.738 29.097-72.556 17.371 18.446 11.581-13.527 23.162 47.961 20.266-17.34 26.78-23.734 36.914h-3.936l19.554-37.782 11.928-23.017-47.961-17.371 9.839-23.162-36.893-21.714 72.556-24.609-22.874-16.647-133.676 2.171-30.375-221.482 319.74-36.19-14.88 253.329zm24.718-227.272l-14.757 204.111 22.136-199.768-7.379-4.343zM90.9019 147.932l-4.9191 8.686 20.9062 75.275-15.9871-83.961zM373.749 77l-201.682 36.19 204.141-21.714L373.749 77zM105.782 333.225l3.566 11.58h8.609l-1.968-11.58h-10.207zm-3.812-85.409H79.834l22.013 72.38h12.052l-11.929-72.38zm330.808 1.448h8.608l3.566-11.581h-10.207l-1.967 11.581zm15.987-96.989l-11.929 72.38h12.052l22.012-72.38h-22.135z" fill="#fff"/><path d="M226.429 263.903l-13.858.034.038 21.02-19.206.048-.039-21.019-45.828.114-.028-15.586 39.999-63.588 20.665-.051-37.088 60.292 22.854-.058-.035-18.731 18.599-.047.034 18.732 13.858-.035.035 18.875zM268.828 286.532c-7.05.018-13.335-2.016-18.853-6.101-5.518-4.086-9.865-9.985-13.039-17.699-3.094-7.809-4.651-17.099-4.67-27.871-.02-10.772 1.503-20.022 4.568-27.752 3.146-7.824 7.471-13.793 12.974-17.906 5.504-4.113 11.78-6.178 18.831-6.196 7.05-.017 13.335 2.016 18.853 6.102 5.518 4.085 9.824 10.032 12.918 17.841 3.175 7.714 4.772 16.956 4.791 27.728.02 10.772-1.543 20.07-4.689 27.895-3.066 7.729-7.35 13.65-12.853 17.763-5.504 4.113-11.78 6.178-18.831 6.196zm-.036-19.59c5.187-.013 9.234-2.644 12.142-7.895 2.989-5.25 4.473-13.357 4.453-24.319-.02-10.963-1.534-19.062-4.542-24.297-2.927-5.236-6.984-7.847-12.17-7.834-5.106.013-9.153 2.644-12.142 7.895-2.908 5.25-4.352 13.356-4.332 24.319.02 10.963 1.494 19.062 4.421 24.297 3.008 5.236 7.065 7.847 12.17 7.834zM392.742 263.486l-13.857.035.038 21.019-19.206.048-.039-21.019-45.828.115-.028-15.586 39.998-63.588 20.665-.052-37.087 60.292 22.853-.057-.034-18.732 18.599-.047.034 18.732 13.858-.035.034 18.875z" fill="#155EA4"/><path d="M170.466 503.896c9.715 6.225 1.476 13.753-18.323 16.793-19.8 3.04-43.78.434-53.4952-5.791-9.7152-6.224-1.4758-13.752 18.3232-16.792 19.8-3.04 43.78-.434 53.495 5.79z" fill="#D7D7DD"/><path d="M174.524 506.502c-.246-1.158-.492-2.316-.615-3.474 0 .289.123.579.123.868 0-.289 0-.579-.123-.868-.246-1.014-.738-2.027-1.476-3.04-.122-.145-.368-.434-.491-.579-.369-.29-.738-.724-1.107-1.014-.369-.289-.984-.723-1.353-1.013-.615-.289-1.353-.868-1.845-1.158-.492-.289-1.106-.579-1.721-.868-.984-.435-2.337-.869-3.321-1.303-.615-.29-1.475-.435-2.213-.724-1.476-.434-3.813-1.013-4.427-1.013-.738-.145-1.599-.29-2.337-.435-1.476-.289-3.443-.579-4.919-.724-1.476-.144-7.01-.723-13.405-.579-1.967 0-1.967 0-5.533.29-.861 0-1.845.145-2.706.289-.861.145-2.46.29-5.411.724-.246 0-2.337.29-4.796.869-1.23.289-2.952.724-4.181 1.158-1.476.434-3.936 1.448-5.534 2.171-.984.435-1.722.869-2.583 1.593-.984.723-1.352 1.158-1.967 1.737 0 0-.369.434-.738 1.013-.246.29-.246.434-.492.869 0 0-.123.289-.369.868-.123.29-.123.29-.246.869v0l-.738 3.474c-.3688 2.027.738 4.198 3.689 6.08 9.101 6.08 31.36 8.541 49.929 5.646 14.142-2.172 21.89-6.949 20.906-11.726z" fill="#C92A39"/><path d="M168.501 497.237c8.485 5.646 1.353 12.45-15.864 15.2-17.217 2.751-38.123.29-46.485-5.356-8.4857-5.645-1.353-12.449 15.864-15.2 17.216-2.75 38.123-.289 46.485 5.356zm-8.485 1.303c-6.149-4.053-21.275-5.79-33.696-3.908-12.544 2.026-17.709 6.948-11.56 11.002 6.149 4.053 21.275 5.79 33.696 3.908 12.42-2.027 17.585-6.948 11.56-11.002zM144.028 425.147c-.369-1.447-1.353-2.171-1.722-2.461-.369-.289-1.23-.723-3.074-1.013-.738-.145-2.214-.29-3.936 0-1.844.29-2.828 1.013-3.074 1.158-.369.29-.615.579-.984 1.013-.246.435-.369.869-.492 1.158-.123.435.123.724.615 1.159 1.599 1.013 5.534 1.592 8.854 1.013 2.706-.29 4.059-1.158 3.813-2.027z" fill="#E2001A"/><path d="M112.177 501.435c.614-2.316 1.352-5.356 1.844-7.672.246-1.158.615-2.606.984-3.764.615-2.316 1.353-5.356 1.845-7.672.615-2.316 1.352-5.356 1.844-7.672.246-1.158.615-2.606.984-3.764.615-2.316 1.353-5.356 1.845-7.672.615-2.316 1.352-5.356 1.844-7.672.246-1.159.615-2.606.984-3.764.615-2.316 1.353-5.356 1.845-7.672.615-2.317 1.353-5.357 1.845-7.673.245-1.158.614-2.605.983-3.764.615-2.316 1.353-5.356 1.845-7.672-.123.434.123.724.615 1.158 1.599 1.014 5.534 1.593 8.854 1.014 2.46-.435 3.935-1.303 3.69-2.172.491 2.316 1.229 5.356 1.844 7.672.492 2.317 1.23 5.357 1.845 7.673.492 2.316 1.23 5.356 1.844 7.672.492 2.316 1.23 5.356 1.845 7.672.492 2.316 1.23 5.356 1.845 7.673.492 2.316 1.23 5.356 1.844 7.672.246 1.158.615 2.605.861 3.764.492 2.316 1.23 5.356 1.845 7.672.492 2.316 1.23 5.356 1.845 7.672.246 1.158.614 2.606.86 3.764.492 2.316 1.23 5.356 1.845 7.672.738 3.33-4.427 6.514-14.019 7.962-12.544 2.027-27.547.289-33.696-3.909-1.968-1.302-2.705-2.75-2.459-4.198z" fill="#C92A39"/><path d="M152.638 460.469c.492 2.026-2.706 3.908-8.485 4.777-7.502 1.158-16.602.144-20.415-2.316-1.229-.869-1.721-1.738-1.475-2.606.615-2.316 1.352-5.356 1.844-7.672.246-1.158.615-2.606.984-3.764.369-1.593.861-3.619 1.23-5.211-.123.579.246 1.302 1.107 1.881 2.705 1.882 9.346 2.606 14.88 1.737 4.181-.723 6.518-2.171 6.149-3.618.492 2.316 1.229 5.356 1.844 7.672.246 1.158.615 2.605.861 3.764.492 1.737.984 3.763 1.476 5.356zM159.891 491.013c.738 2.895-4.058 5.79-12.667 7.238-11.191 1.737-24.841.29-30.252-3.474-1.845-1.303-2.583-2.606-2.214-3.909.615-2.316 1.353-5.356 1.845-7.672.246-1.158.615-2.606.984-3.764.369-1.592.861-3.619 1.229-5.211-.245 1.013.369 2.171 1.845 3.185 4.55 3.04 15.618 4.342 24.841 2.895 7.01-1.158 10.945-3.474 10.331-5.935l4.058 16.647z" fill="#fff"/><path d="M409.166 498.106c19.799 3.04 28.039 10.568 18.324 16.792-9.715 6.225-33.696 8.831-53.495 5.791-19.8-3.04-28.039-10.568-18.324-16.793 9.715-6.224 33.696-8.83 53.495-5.79z" fill="#D7D7DD"/><path d="M351.613 506.502c.246-1.158.492-2.316.615-3.474 0 .289-.123.579-.123.868 0-.289 0-.579.123-.868.246-1.014.738-2.027 1.475-3.04.123-.145.369-.434.492-.579.369-.29.738-.724 1.107-1.014.369-.289.984-.723 1.353-1.013.615-.289 1.353-.868 1.845-1.158.491-.289 1.106-.579 1.721-.868.984-.435 2.337-.869 3.321-1.303.614-.29 1.475-.435 2.213-.724 1.476-.434 3.812-1.013 4.427-1.013.738-.145 1.599-.29 2.337-.435 1.476-.289 3.443-.579 4.919-.724 1.476-.144 7.01-.723 13.404-.579 1.968 0 1.968 0 5.534.29.861 0 1.845.145 2.706.289.861.145 2.459.29 5.411.724.246 0 2.336.29 4.796.869 1.23.289 2.951.724 4.181 1.158 1.476.434 3.935 1.448 5.534 2.171.984.435 1.722.869 2.583 1.593.983.723 1.352 1.158 1.967 1.737 0 0 .369.434.738 1.013.246.29.246.434.492.869 0 0 .123.289.369.868.123.29.123.29.246.869v0l.738 3.474c.369 2.027-.738 4.198-3.689 6.08-9.101 6.08-31.36 8.541-49.929 5.646-14.142-2.172-21.89-6.949-20.906-11.726z" fill="#C92A39"/><path d="M404.125 491.881c17.217 2.751 24.35 9.554 15.864 15.2-8.485 5.646-29.268 7.962-46.485 5.356-17.217-2.75-24.349-9.554-15.864-15.2 8.362-5.645 29.268-8.106 46.485-5.356zm-38 6.659c-6.148 4.054-.983 8.975 11.56 11.002 12.544 2.027 27.547.29 33.696-3.908 6.149-4.054.984-8.976-11.56-11.002-12.421-1.882-27.547-.145-33.696 3.908zM382.111 425.147c.368-1.447 1.352-2.171 1.721-2.461.369-.289 1.23-.723 3.075-1.013.737-.145 2.213-.29 3.935 0 1.844.29 2.828 1.013 3.074 1.158.369.29.615.579.984 1.013.246.435.369.869.492 1.158.123.435-.123.724-.615 1.159-1.599 1.013-5.534 1.592-8.854 1.013-2.706-.29-4.058-1.158-3.812-2.027z" fill="#E2001A"/><path d="M413.961 501.435c-.615-2.316-1.353-5.356-1.845-7.672-.246-1.158-.615-2.606-.984-3.764-.615-2.316-1.352-5.356-1.844-7.672-.615-2.316-1.353-5.356-1.845-7.672-.246-1.158-.615-2.606-.984-3.764-.615-2.316-1.352-5.356-1.844-7.672-.615-2.316-1.353-5.356-1.845-7.672-.246-1.159-.615-2.606-.984-3.764-.615-2.316-1.353-5.356-1.845-7.672-.614-2.317-1.352-5.357-1.844-7.673-.246-1.158-.615-2.605-.984-3.764-.615-2.316-1.353-5.356-1.845-7.672.123.434-.123.724-.614 1.158-1.599 1.014-5.534 1.593-8.855 1.014-2.459-.435-3.935-1.303-3.689-2.172-.492 2.316-1.23 5.356-1.845 7.672-.492 2.317-1.23 5.357-1.844 7.673-.492 2.316-1.23 5.356-1.845 7.672-.492 2.316-1.23 5.356-1.845 7.672-.492 2.316-1.229 5.356-1.844 7.673-.492 2.316-1.23 5.356-1.845 7.672-.246 1.158-.615 2.605-.861 3.764-.492 2.316-1.23 5.356-1.845 7.672-.491 2.316-1.229 5.356-1.844 7.672-.246 1.158-.615 2.606-.861 3.764-.492 2.316-1.23 5.356-1.845 7.672-.738 3.33 4.428 6.514 14.02 7.962 12.543 2.027 27.546.289 33.695-3.909 1.968-1.302 2.706-2.75 2.46-4.198z" fill="#C92A39"/><path d="M373.503 460.469c-.492 2.026 2.705 3.908 8.485 4.777 7.502 1.158 16.602.144 20.414-2.316 1.23-.869 1.722-1.738 1.476-2.606-.615-2.316-1.353-5.356-1.845-7.672-.246-1.158-.615-2.606-.984-3.764-.368-1.593-.86-3.619-1.229-5.211.123.579-.246 1.302-1.107 1.881-2.706 1.882-9.346 2.606-14.88 1.737-4.182-.723-6.518-2.171-6.149-3.618-.492 2.316-1.23 5.356-1.845 7.672-.246 1.158-.615 2.605-.861 3.764-.492 1.737-.983 3.763-1.475 5.356zM366.246 491.013c-.738 2.895 4.058 5.79 12.667 7.238 11.191 1.737 24.841.29 30.252-3.474 1.845-1.303 2.583-2.606 2.214-3.909-.615-2.316-1.353-5.356-1.845-7.672-.246-1.158-.615-2.606-.984-3.764-.369-1.592-.861-3.619-1.23-5.211.246 1.013-.368 2.171-1.844 3.185-4.55 3.04-15.618 4.342-24.842 2.895-7.009-1.158-10.944-3.474-10.33-5.935l-4.058 16.647z" fill="#fff"/></g><defs><clipPath id="clip0"><path fill="#fff" d="M0 0h499v571H0z"/></clipPath></defs></svg>