<svg width="1440" height="320" viewBox="0 0 1440 320" xmlns="http://www.w3.org/2000/svg" fill="none"><path fill="#155EA4" d="M0 0h1440v320h-1440z"/><g clip-path="url(#a)"><g opacity=".2" fill-rule="evenodd" clip-rule="evenodd" stroke="#fff" stroke-miterlimit="10"><path d="M-38.347 126.785l11.85-11.85-10.49-10.49 31.761 18.746 9.519-9.519-19.523-32.15 25.836 25.837.194-.583.194.194 24.865-24.865-18.746 31.373 9.519 9.519 31.664-18.746-10.49 10.49 11.947 11.946 28.07-28.07-16.998-17.192-29.139 16.9 17.289-28.847-17.289-17.289-30.984 30.984-31.081-31.081-17.289 17.289 17.289 28.847-29.236-16.998-17.095 17.192 28.362 28.362zm83.24 14.86l-11.947-11.946 11.947 11.946zM87.338 160.974l-42.931-42.931-11.753 11.753 25.059 25.059-31.567-18.552-9.713 9.713 19.523 31.762-25.642-25.643-.194.195-24.865 24.865 18.552-31.179-9.519-9.518-31.567 18.551 25.059-25.059-11.947-11.947-42.834 42.737 17.095 17.095 29.042-17.095-17.289 28.847 17.289 17.289 30.984-30.984 31.081 31.081 17.289-17.289-17.192-28.653 29.042 16.804 16.998-16.901z"/></g><g opacity=".2" fill-rule="evenodd" clip-rule="evenodd" stroke="#fff" stroke-miterlimit="10"><path d="M460.653 126.785l11.85-11.85-10.49-10.49 31.761 18.746 9.519-9.519-19.523-32.15 25.836 25.837.194-.583.194.194 24.866-24.865-18.746 31.373 9.518 9.519 31.664-18.746-10.49 10.49 11.947 11.946 28.071-28.07-16.998-17.192-29.139 16.9 17.289-28.847-17.289-17.289-30.984 30.984-31.081-31.081-17.289 17.289 17.289 28.847-29.236-16.998-17.095 17.192 28.362 28.362zm83.24 14.86l-11.947-11.946 11.947 11.946zM586.339 160.974l-42.932-42.931-11.752 11.753 25.059 25.059-31.567-18.552-9.713 9.713 19.523 31.762-25.642-25.643-.194.195-24.865 24.865 18.551-31.179-9.518-9.518-31.567 18.551 25.059-25.059-11.947-11.947-42.834 42.737 17.095 17.095 29.041-17.095-17.289 28.847 17.289 17.289 30.985-30.984 31.081 31.081 17.289-17.289-17.192-28.653 29.042 16.804 16.998-16.901z"/></g><g opacity=".2" fill-rule="evenodd" clip-rule="evenodd" stroke="#fff" stroke-miterlimit="10"><path d="M958.653 126.785l11.85-11.85-10.49-10.49 31.761 18.746 9.516-9.519-19.52-32.15 25.84 25.837.19-.583.19.194 24.87-24.865-18.75 31.373 9.52 9.519 31.67-18.746-10.49 10.49 11.94 11.946 28.07-28.07-16.99-17.192-29.14 16.9 17.29-28.847-17.29-17.289-30.99 30.984-31.078-31.081-17.289 17.289 17.289 28.847-29.236-16.998-17.095 17.192 28.362 28.362zm83.237 14.86l-11.94-11.946 11.94 11.946zM1084.34 160.974l-42.93-42.931-11.76 11.753 25.06 25.059-31.56-18.552-9.72 9.713 19.53 31.762-25.65-25.643-.19.195-24.864 24.865 18.554-31.179-9.521-9.518-31.567 18.551 25.059-25.059-11.947-11.947-42.834 42.737 17.095 17.095 29.041-17.095-17.289 28.847 17.289 17.289 30.984-30.984 31.08 31.081 17.29-17.289-17.19-28.653 29.04 16.804 17-16.901z"/></g><g opacity=".2" fill-rule="evenodd" clip-rule="evenodd" stroke="#fff" stroke-miterlimit="10"><path d="M210.692 126.785l11.85-11.85-10.49-10.49 31.761 18.746 9.519-9.519-19.523-32.15 25.837 25.837.194-.583.194.194 24.865-24.865-18.746 31.373 9.519 9.519 31.664-18.746-10.49 10.49 11.947 11.946 28.07-28.07-16.997-17.192-29.139 16.9 17.289-28.847-17.289-17.289-31.081 30.984-31.082-31.081-17.289 17.289 17.289 28.847-29.139-16.9-17.094 17.095 28.361 28.362zm83.24 14.86l-11.947-11.946 11.947 11.946zM336.378 160.974l-42.931-42.931-11.753 11.753 25.06 25.059-31.567-18.649-9.713 9.713 19.523 31.761-25.643-25.642-.194.194-24.865 24.866 18.552-31.179-9.519-9.519-31.567 18.552 25.059-25.059-11.946-11.947-42.834 42.834 17.094 17.095 29.042-17.095-17.289 28.847 17.289 17.289 30.984-30.984 31.082 31.081 17.289-17.289-17.192-28.653 29.041 16.804 16.998-16.901z"/></g><g opacity=".2" fill-rule="evenodd" clip-rule="evenodd" stroke="#fff" stroke-miterlimit="10"><path d="M709.692 126.785l11.85-11.85-10.49-10.49 31.761 18.746 9.519-9.519-19.523-32.15 25.837 25.837.194-.583.194.194 24.865-24.865-18.746 31.373 9.519 9.519 31.664-18.746-10.49 10.49 11.947 11.946 28.07-28.07-16.997-17.192-29.139 16.9 17.289-28.847-17.289-17.289-31.081 30.984-31.082-31.081-17.289 17.289 17.289 28.847-29.139-16.9-17.094 17.095 28.361 28.362zm83.24 14.86l-11.947-11.946 11.947 11.946zM835.378 160.974l-42.931-42.931-11.753 11.753 25.06 25.059-31.567-18.649-9.713 9.713 19.523 31.761-25.643-25.642-.194.194-24.865 24.866 18.552-31.179-9.519-9.519-31.567 18.552 25.059-25.059-11.946-11.947-42.834 42.834 17.094 17.095 29.042-17.095-17.289 28.847 17.289 17.289 30.984-30.984 31.082 31.081 17.289-17.289-17.192-28.653 29.041 16.804 16.998-16.901z"/></g><g opacity=".2" fill-rule="evenodd" clip-rule="evenodd" stroke="#fff" stroke-miterlimit="10"><path d="M1207.69 126.785l11.85-11.85-10.49-10.49 31.76 18.746 9.52-9.519-19.52-32.15 25.84 25.837.19-.583.19.194 24.87-24.865-18.75 31.373 9.52 9.519 31.67-18.746-10.49 10.49 11.94 11.946 28.07-28.07-16.99-17.192-29.14 16.9 17.29-28.847-17.29-17.289-31.08 30.984-31.09-31.081-17.28 17.289 17.28 28.847-29.13-16.9-17.1 17.095 28.36 28.362zm83.24 14.86l-11.94-11.946 11.94 11.946zM1333.38 160.974l-42.93-42.931-11.76 11.753 25.06 25.059-31.56-18.649-9.72 9.713 19.53 31.761-25.65-25.642-.19.194-24.86 24.866 18.55-31.179-9.52-9.519-31.57 18.552 25.06-25.059-11.95-11.947-42.83 42.834 17.09 17.095 29.05-17.095-17.29 28.847 17.29 17.289 30.98-30.984 31.08 31.081 17.29-17.289-17.19-28.653 29.04 16.804 17-16.901z"/></g><g opacity=".2" fill-rule="evenodd" clip-rule="evenodd" stroke="#fff" stroke-miterlimit="10"><path d="M86.173 278.889l11.85-11.85-10.49-10.489 31.761 18.745 9.519-9.518-19.523-32.15 25.836 25.836.194-.582.194.194 24.866-24.865-18.746 31.373 9.518 9.518 31.664-18.746-10.49 10.49 11.947 11.947 28.071-28.07-17.095-17.095-29.139 16.9 17.289-28.847-17.289-17.289-30.984 30.984-31.081-31.081-17.29 17.289 17.29 28.847-29.236-16.997-17.095 17.094 28.459 28.362zm83.24 14.861l-11.947-11.947 11.947 11.947zM211.859 313.079l-42.932-42.931-11.752 11.752 25.059 25.06-31.567-18.649-9.713 9.713 19.523 31.761-25.642-25.642-.194.194-24.865 24.865 18.551-31.178-9.518-9.519-31.567 18.552 25.059-25.06-11.947-11.946-42.834 42.834 17.095 17.094 29.041-17.094-17.289 28.847 17.289 17.289 30.985-30.984 31.081 31.081 17.289-17.289-17.192-28.653 29.042 16.803 16.998-16.9z"/></g><g opacity=".2" fill-rule="evenodd" clip-rule="evenodd" stroke="#fff" stroke-miterlimit="10"><path d="M585.173 278.889l11.85-11.85-10.49-10.489 31.761 18.745 9.519-9.518-19.523-32.15 25.836 25.836.194-.582.194.194 24.866-24.865-18.746 31.373 9.518 9.518 31.664-18.746-10.49 10.49 11.947 11.947 28.071-28.07-17.095-17.095-29.139 16.9 17.289-28.847-17.289-17.289-30.984 30.984-31.081-31.081-17.289 17.289 17.289 28.847-29.236-16.997-17.095 17.094 28.459 28.362zm83.24 14.861l-11.947-11.947 11.947 11.947zM710.859 313.079l-42.932-42.931-11.752 11.752 25.059 25.06-31.567-18.649-9.713 9.713 19.523 31.761-25.642-25.642-.194.194-24.865 24.865 18.551-31.178-9.518-9.519-31.567 18.552 25.059-25.06-11.947-11.946-42.834 42.834 17.095 17.094 29.041-17.094-17.289 28.847 17.289 17.289 30.985-30.984 31.081 31.081 17.289-17.289-17.192-28.653 29.042 16.803 16.998-16.9z"/></g><g opacity=".2" fill-rule="evenodd" clip-rule="evenodd" stroke="#fff" stroke-miterlimit="10"><path d="M1083.17 278.889l11.85-11.85-10.49-10.489 31.76 18.745 9.52-9.518-19.52-32.15 25.84 25.836.19-.582.19.194 24.87-24.865-18.75 31.373 9.52 9.518 31.67-18.746-10.49 10.49 11.94 11.947 28.07-28.07-17.09-17.095-29.14 16.9 17.29-28.847-17.29-17.289-30.98 30.984-31.09-31.081-17.28 17.289 17.28 28.847-29.23-16.997-17.1 17.094 28.46 28.362zm83.24 14.861l-11.94-11.947 11.94 11.947zM1208.86 313.079l-42.93-42.931-11.76 11.752 25.06 25.06-31.56-18.649-9.72 9.713 19.53 31.761-25.65-25.642-.19.194-24.86 24.865 18.55-31.178-9.52-9.519-31.57 18.552 25.06-25.06-11.95-11.946-42.83 42.834 17.09 17.094 29.05-17.094-17.29 28.847 17.29 17.289 30.98-30.984 31.08 31.081 17.29-17.289-17.19-28.653 29.04 16.803 17-16.9z"/></g><g opacity=".2" fill-rule="evenodd" clip-rule="evenodd" stroke="#fff" stroke-miterlimit="10"><path d="M1456.64 126.785l11.85-11.85-10.49-10.49 31.76 18.746 9.52-9.519-19.53-32.15 25.84 25.837.19-.583.2.194 24.86-24.865-18.65 31.373 9.52 9.519 31.67-18.746-10.49 10.49 11.94 11.946 28.07-28.07-16.99-17.192-29.14 16.9 17.29-28.847-17.29-17.289-30.99 30.984-31.08-31.081-17.29 17.289 17.29 28.847-29.23-16.998-17.1 17.095 28.27 28.459zm83.33 14.86l-11.94-11.946 11.94 11.946zM1582.32 160.974l-42.93-42.931-11.75 11.753 25.06 25.059-31.57-18.552-9.71 9.713 19.52 31.761-25.64-25.642-.2.195-24.86 24.865 18.55-31.179-9.52-9.518-31.57 18.551 25.06-25.059-11.94-11.947-42.84 42.834 17.1 17.095 29.04-17.095-17.29 28.847 17.29 17.289 30.98-30.984 31.08 31.082 17.29-17.289-17.09-28.751 29.04 16.804 16.9-16.901z"/></g><g opacity=".2" fill-rule="evenodd" clip-rule="evenodd" stroke="#fff" stroke-miterlimit="10"><path d="M335.213 278.889l11.85-11.947-10.49-10.49 31.761 18.746 9.519-9.518-19.523-32.15 25.836 25.836.194-.583.194.195 24.866-24.865-18.746 31.372 9.518 9.519 31.664-18.746-10.49 10.49 11.947 11.947 28.071-28.07-17.095-17.095-29.139 16.9 17.289-28.847-17.289-17.289-30.984 30.984-31.081-31.081-17.289 17.289 17.289 28.847-29.236-16.997-17.095 17.094 28.459 28.459zm83.24 14.861l-11.947-11.947 11.947 11.947zM460.801 313.079l-42.931-42.931-11.752 11.752 25.059 25.06-31.47-18.649-9.713 9.713 19.523 31.761-25.642-25.642-.194.194-24.865 24.865 18.551-31.178-9.518-9.519-31.567 18.552 25.059-25.06-11.947-11.947-42.834 42.834 17.095 17.095 29.041-17.095-17.289 28.848 17.289 17.289 30.985-30.984 31.081 31.081 17.289-17.289-17.192-28.653 29.042 16.803 16.9-16.9z"/></g><g opacity=".2" fill-rule="evenodd" clip-rule="evenodd" stroke="#fff" stroke-miterlimit="10"><path d="M834.213 278.889l11.85-11.947-10.49-10.49 31.761 18.746 9.519-9.518-19.523-32.15 25.836 25.836.194-.583.194.195 24.866-24.865-18.746 31.372 9.518 9.519 31.664-18.746-10.49 10.49 11.947 11.947 28.071-28.07-17.095-17.095-29.139 16.9 17.289-28.847-17.289-17.289-30.984 30.984-31.081-31.081-17.289 17.289 17.289 28.847-29.236-16.997-17.095 17.094 28.459 28.459zm83.24 14.861l-11.947-11.947 11.947 11.947zM959.801 313.079l-42.931-42.931-11.752 11.752 25.059 25.06-31.47-18.649-9.713 9.713 19.523 31.761-25.642-25.642-.194.194-24.865 24.865 18.551-31.178-9.518-9.519-31.567 18.552 25.059-25.06-11.947-11.947-42.834 42.834 17.095 17.095 29.041-17.095-17.289 28.848 17.289 17.289 30.985-30.984 31.081 31.081 17.289-17.289-17.192-28.653 29.042 16.803 16.9-16.9z"/></g><g opacity=".2" fill-rule="evenodd" clip-rule="evenodd" stroke="#fff" stroke-miterlimit="10"><path d="M1332.21 278.889l11.85-11.947-10.49-10.49 31.76 18.746 9.52-9.518-19.52-32.15 25.84 25.836.19-.583.19.195 24.87-24.865-18.75 31.372 9.52 9.519 31.67-18.746-10.49 10.49 11.94 11.947 28.07-28.07-17.09-17.095-29.14 16.9 17.29-28.847-17.29-17.289-30.98 30.984-31.09-31.081-17.28 17.289 17.28 28.847-29.23-16.997-17.1 17.094 28.46 28.459zm83.24 14.861l-11.94-11.947 11.94 11.947zM1457.8 313.079l-42.93-42.931-11.75 11.752 25.06 25.06-31.47-18.649-9.72 9.713 19.53 31.761-25.64-25.642-.2.194-24.86 24.865 18.55-31.178-9.52-9.519-31.57 18.552 25.06-25.06-11.95-11.947-42.83 42.834 17.09 17.095 29.05-17.095-17.29 28.848 17.29 17.289 30.98-30.984 31.08 31.081 17.29-17.289-17.19-28.653 29.04 16.803 16.9-16.9z"/></g><path fill-rule="evenodd" clip-rule="evenodd" d="M211.859 8.87l-42.932-42.931-11.752 11.753 25.059 25.059-31.567-18.552-9.713 9.713 19.523 31.761-25.642-25.642-.194.194-24.865 24.865 18.551-31.178-9.518-9.616-31.567 18.552 25.059-25.059-11.947-11.947-42.834 42.834 17.095 17.095 29.041-17.095-17.289 28.847 17.289 17.289 30.985-30.984 31.081 31.081 17.289-17.289-17.192-28.653 29.042 16.803 16.998-16.901zM710.859 8.87l-42.932-42.931-11.752 11.753 25.059 25.059-31.567-18.552-9.713 9.713 19.523 31.761-25.642-25.642-.194.194-24.865 24.865 18.551-31.178-9.518-9.616-31.567 18.552 25.059-25.059-11.947-11.947-42.834 42.834 17.095 17.095 29.041-17.095-17.289 28.847 17.289 17.289 30.985-30.984 31.081 31.081 17.289-17.289-17.192-28.653 29.042 16.803 16.998-16.901zM1208.86 8.87l-42.93-42.931-11.76 11.753 25.06 25.059-31.56-18.552-9.72 9.713 19.53 31.761-25.65-25.642-.19.194-24.86 24.865 18.55-31.178-9.52-9.616-31.57 18.552 25.06-25.059-11.95-11.947-42.83 42.834 17.09 17.095 29.05-17.095-17.29 28.847 17.29 17.289 30.98-30.984 31.08 31.081 17.29-17.289-17.19-28.653 29.04 16.803 17-16.901zM460.801 8.87l-42.931-42.931-11.752 11.753 25.059 25.059-31.567-18.552-9.713 9.713 19.523 31.761-25.642-25.642-.194.194-24.865 24.865 18.551-31.179-9.518-9.519-31.567 18.552 25.059-25.059-11.85-12.044-42.834 42.834 17.095 17.095 29.041-17.095-17.289 28.945 17.289 17.289 30.985-30.984 31.081 31.081 17.289-17.289-17.192-28.653 29.042 16.803 16.9-16.998zM959.801 8.87l-42.931-42.931-11.752 11.753 25.059 25.059-31.567-18.552-9.713 9.713 19.523 31.761-25.642-25.642-.194.194-24.865 24.865 18.551-31.179-9.518-9.519-31.567 18.552 25.059-25.059-11.85-12.044-42.834 42.834 17.095 17.095 29.041-17.095-17.289 28.945 17.289 17.289 30.985-30.984 31.081 31.081 17.289-17.289-17.192-28.653 29.042 16.803 16.9-16.998zM1457.8 8.87l-42.93-42.931-11.75 11.753 25.06 25.059-31.57-18.552-9.71 9.713 19.52 31.761-25.64-25.642-.2.194-24.86 24.865 18.55-31.179-9.52-9.519-31.57 18.552 25.06-25.059-11.85-12.044-42.83 42.834 17.09 17.095 29.05-17.095-17.29 28.945 17.29 17.289 30.98-30.984 31.08 31.081 17.29-17.289-17.19-28.653 29.04 16.803 16.9-16.998z" stroke="#fff" stroke-miterlimit="10" opacity=".2"/></g><defs><clipPath id="a"><path fill="#fff" d="M1 0h1439v320h-1439z"/></clipPath></defs></svg>