<svg width="64" height="80" fill="none" xmlns="http://www.w3.org/2000/svg"><path d="M55.8595 71.977c-.6472 0-1.1719.5247-1.1719 1.1719v3.3395c0 .6439-.5239 1.1678-1.168 1.1678H3.51181c-.64391 0-1.16782-.5239-1.16782-1.1678V15.3071c0-.6472-.52468-1.1718-1.17187-1.1718-.647188 0-1.17187585.5246-1.17187585 1.1718v61.1813C.0000879 78.4246 1.5754 79.9999 3.51181 79.9999H53.5198c1.9364 0 3.5117-1.5753 3.5117-3.5115v-3.3395c-.0002-.6472-.5249-1.1719-1.172-1.1719zM1.17187 11.0233c.64719 0 1.17188-.5247 1.17188-1.17189V3.51156c0-.6439.52391-1.16781 1.16781-1.16781H42.0312V13.8259c0 .6472.5246 1.1719 1.1718 1.1719l11.4845.0019v23.9047c0 .6472.5247 1.1719 1.1719 1.1719.6472 0 1.1718-.5247 1.1718-1.1719V13.8281c0-.3108-.1234-.6089-.3432-.8286L44.0317.343281C43.812.123438 43.5141 0 43.2031 0H3.51172C1.57531 0 0 1.57531 0 3.51156v6.33985c0 .64719.524687 1.17189 1.17187 1.17189zM44.375 4.00094l8.6548 8.65486-8.6548-.0014V4.00094z" fill="#D5D4D0"/><path d="M62.6485 42.333H14.5274c-.6472 0-1.1719.5247-1.1719 1.1719v25c0 .6472.5247 1.1719 1.1719 1.1719h9.1583c.6471 0 1.1718-.5247 1.1718-1.1719 0-.6472-.5247-1.1719-1.1718-1.1719h-7.9865V44.6768h45.7774V67.333H29.115c-.6472 0-1.1718.5247-1.1718 1.1719 0 .6472.5246 1.1719 1.1718 1.1719h33.5333c.6472 0 1.1719-.5247 1.1719-1.1719v-25c.0001-.6472-.5245-1.1719-1.1717-1.1719zM42.5621 20.5415H14.5274c-.6472 0-1.1719.5247-1.1719 1.1719 0 .6472.5247 1.1719 1.1719 1.1719h28.0347c.6471 0 1.1718-.5247 1.1718-1.1719 0-.6472-.5247-1.1719-1.1718-1.1719zM42.5621 27.4531H14.5274c-.6472 0-1.1719.5247-1.1719 1.1719 0 .6472.5247 1.1719 1.1719 1.1719h28.0347c.6471 0 1.1718-.5247 1.1718-1.1719 0-.6472-.5247-1.1719-1.1718-1.1719zM42.5621 34.5023h-5.5386c-.6472 0-1.1718.5247-1.1718 1.1719 0 .6472.5246 1.1719 1.1718 1.1719h5.5386c.6472 0 1.1719-.5247 1.1719-1.1719 0-.6472-.5247-1.1719-1.1719-1.1719zM14.5274 34.5023c-.6472 0-1.1719.5247-1.1719 1.1719 0 .6472.5247 1.1719 1.1719 1.1719h16.9808c.6471 0 1.1718-.5247 1.1718-1.1719 0-.6472-.5247-1.1719-1.1718-1.1719H14.5274z" fill="#D5D4D0"/><path d="M31.7814 53.8794V51.737c0-2.0606-1.6764-3.737-3.737-3.737H23.082c-.6472 0-1.1718.5247-1.1718 1.1719v14.5458c0 .6471.5246 1.1718 1.1718 1.1718s1.1719-.5247 1.1719-1.1718v-6.101h3.7905c2.0604-.0003 3.737-1.6767 3.737-3.7373zm-2.3437 0c0 .7683-.625 1.3933-1.3933 1.3933h-3.7905v-4.9291h3.7905c.7683 0 1.3933.625 1.3933 1.3933v2.1425zM41.8849 48c.3138 0 .5603.1341.7395.4022.1905.2533.2858.5959.2858 1.028v13.1173c0 .432-.0953.7821-.2858 1.0503-.1904.2681-.4369.4022-.7395.4022-.3585 0-.633-.1713-.8235-.514L34.927 52.8715v9.676c0 .432-.0897.7821-.2689 1.0503-.1793.2681-.4258.4022-.7395.4022-.3138 0-.5603-.1341-.7395-.4022-.1793-.2682-.2689-.6183-.2689-1.0503V49.4302c0-.4321.0952-.7747.2857-1.028.1904-.2681.4425-.4022.7563-.4022.3473 0 .6162.1713.8067.514l6.1176 10.5698v-9.6536c0-.4321.0897-.7747.269-1.028.1904-.2681.4369-.4022.7394-.4022zM54.2395 57.4459v2.9657c0 .394-.0271.7107-.0813.9499-.0541.2322-.155.4432-.3027.6332-.1427.19-.3273.3729-.5537.5488-.6547.5066-1.2847.876-1.8902 1.1082-.6054.2322-1.265.3483-1.9787.3483-.8319 0-1.5899-.1829-2.2741-.5488-.6842-.3659-1.2674-.8971-1.7498-1.5937-.4824-.6966-.854-1.5409-1.1149-2.533-.256-.992-.3839-2.1002-.3839-3.3245 0-1.2032.1255-2.3043.3765-3.3034.251-.9992.6202-1.847 1.1075-2.5436.4873-.6965 1.0804-1.2278 1.7794-1.5936.699-.3729 1.4914-.5594 2.3774-.5594.7285 0 1.3733.1407 1.9345.4222.5611.2744 1.0164.6227 1.3659 1.0448.3495.4222.6128.869.79 1.3404.1772.4714.2658.89.2658 1.2559 0 .394-.1034.7318-.3101 1.0132-.2018.2744-.4455.4116-.7309.4116-.1576 0-.3101-.0527-.4578-.1583-.1428-.1055-.2634-.2533-.3618-.4433-.2707-.6051-.4996-1.0624-.6866-1.372-.1871-.3096-.4406-.5699-.7605-.781-.3151-.2111-.7187-.3166-1.2109-.3166-.507 0-.9598.1266-1.3585.3799-.3987.2463-.7408.6087-1.0263 1.0871-.2806.4714-.4972 1.0519-.6498 1.7414-.1476.6896-.2215 1.453-.2215 2.2903 0 1.8153.2905 3.2119.8713 4.1899.5857.9781 1.4004 1.4671 2.4439 1.4671.507 0 .9819-.095 1.4249-.285.448-.19.9008-.4609 1.3586-.8127v-2.5118H50.533c-.4085 0-.7186-.088-.9303-.2639-.2067-.1759-.3101-.4749-.3101-.8971 0-.3448.0862-.6297.2584-.8549.1772-.2251.416-.3377.7162-.3377h2.4882c.3052 0 .5636.0387.7753.1161.2116.0774.3814.2498.5094.5171.1329.2674.1994.6685.1994 1.2032z" fill="#D5D4D0"/></svg>