<svg width="54" height="66" viewBox="0 0 54 66" xmlns="http://www.w3.org/2000/svg" fill="none"><path d="M46.758 59.381c-.534 0-.967.433-.967.967v2.755c0 .531-.432.963-.964.963h-41.256c-.531 0-.963-.432-.963-.963v-50.475c0-.534-.433-.967-.967-.967s-.967.433-.967.967v50.475c0 1.597 1.3 2.897 2.897 2.897h41.257c1.598 0 2.897-1.3 2.897-2.897v-2.755c0-.534-.433-.967-.967-.967zM1.641 9.094c.534 0 .967-.433.967-.967v-5.23c0-.531.432-.963.963-.963h31.779v9.473c0 .534.433.967.967.967l9.475.002v19.721c0 .534.433.967.967.967s.967-.433.967-.967v-20.688c0-.256-.102-.502-.283-.684l-10.441-10.441c-.181-.181-.427-.283-.684-.283h-32.745c-1.598 0-2.897 1.3-2.897 2.897v5.23c0 .534.433.967.967.967zm35.643-5.793l7.14 7.14-7.14-.001v-7.139zM52.358 34.925h-39.7c-.534 0-.967.433-.967.967v20.625c0 .534.433.967.967.967h7.556c.534 0 .967-.433.967-.967s-.433-.967-.967-.967h-6.589v-18.691h37.766v18.691h-26.698c-.534 0-.967.433-.967.967s.433.967.967.967h27.665c.534 0 .967-.433.967-.967v-20.625c0-.534-.433-.967-.967-.967zM35.787 16.947h-23.129c-.534 0-.967.433-.967.967s.433.967.967.967h23.129c.534 0 .967-.433.967-.967s-.433-.967-.967-.967zM35.787 22.649h-23.129c-.534 0-.967.433-.967.967s.433.967.967.967h23.129c.534 0 .967-.433.967-.967s-.433-.967-.967-.967zM35.788 28.464h-4.569c-.534 0-.967.433-.967.967s.433.967.967.967h4.569c.534 0 .967-.433.967-.967s-.433-.967-.967-.967zM12.658 28.464c-.534 0-.967.433-.967.967s.433.967.967.967h14.009c.534 0 .967-.433.967-.967s-.433-.967-.967-.967h-14.009zM22.985 53.171c1.7 0 3.083-1.383 3.083-3.083v-7.768c0-1.7-1.383-3.083-3.083-3.083h-4.094c-.534 0-.967.433-.967.967v12c0 .534.433.967.967.967h4.094zm-3.127-12h3.127c.634 0 1.149.516 1.149 1.149v7.768c0 .634-.516 1.149-1.149 1.149h-3.127v-10.066zM34.197 39.6c.254 0 .517.061.79.183s.537.277.79.465h-.015c.254.21.449.487.585.83.137.332.205.719.205 1.162v7.887c0 .897-.264 1.566-.79 2.009-.254.21-.517.376-.79.498-.264.111-.522.166-.776.166h-3.19c-.254 0-.517-.055-.79-.166-.263-.122-.522-.288-.776-.498-.254-.221-.449-.493-.585-.814-.137-.332-.205-.73-.205-1.195v-7.887c0-.443.068-.83.205-1.162.137-.343.332-.62.585-.83h-.015c.254-.188.517-.343.79-.465s.537-.183.79-.183h3.19zm-.366 11.523c.361 0 .615-.116.761-.349.146-.232.219-.493.219-.78v-7.604c0-.277-.073-.531-.219-.764-.146-.232-.4-.349-.761-.349h-2.459c-.361 0-.615.116-.761.349-.146.233-.22.487-.22.764v7.604c0 .288.073.548.22.78.146.233.4.349.761.349h2.459zM46.8 50.127c0 .897-.263 1.566-.79 2.009-.254.21-.517.376-.79.498-.263.111-.522.166-.776.166h-3.19c-.254 0-.517-.055-.79-.166-.264-.122-.522-.288-.776-.498-.254-.221-.449-.493-.585-.814-.137-.332-.205-.73-.205-1.195v-7.887c0-.443.068-.83.205-1.162.137-.343.332-.62.585-.83h-.015c.254-.188.517-.343.79-.465s.537-.183.79-.183h3.19c.254 0 .517.061.79.183s.537.277.79.465h-.015c.254.21.449.487.585.83.137.332.205.719.205 1.162v1.146c0 .531-.293.797-.878.797-.576 0-.863-.266-.863-.797v-.996c0-.277-.073-.531-.22-.764-.146-.232-.4-.349-.761-.349h-2.459c-.361 0-.615.116-.761.349-.146.233-.219.487-.219.764v7.604c0 .288.073.548.219.78.146.233.4.349.761.349h2.459c.361 0 .615-.116.761-.349.146-.232.22-.493.22-.78v-.963c0-.52.288-.78.863-.78.585 0 .878.26.878.78v1.096z" fill="#D5D4D0"/></svg>