<svg width="16" height="16" viewBox="0 0 16 16" xmlns="http://www.w3.org/2000/svg" fill="none"><path d="M14.716 10.502c-.98 0-1.942-.153-2.853-.454-.447-.152-.996-.013-1.268.267l-1.799 1.358c-2.086-1.114-3.372-2.398-4.47-4.469l1.318-1.752c.342-.342.465-.842.318-1.31-.303-.916-.456-1.878-.456-2.858 0-.708-.576-1.284-1.284-1.284h-2.938c-.708 0-1.284.576-1.284 1.284 0 8.115 6.602 14.716 14.716 14.716.708 0 1.284-.576 1.284-1.284v-2.93c0-.708-.576-1.284-1.284-1.284z" fill="#155EA4" clip-path="url(#a)"/><defs><clipPath id="a"><path fill="#fff" d="M0 0h16v16h-16z"/></clipPath></defs></svg>