<svg width="80" height="80" viewBox="0 0 80 80" xmlns="http://www.w3.org/2000/svg" fill="none"><g clip-path="url(#a)" fill="#D5D4D0"><path d="M63.949 71.977c-.647 0-1.172.525-1.172 1.172v3.34c0 .644-.524 1.168-1.168 1.168h-50.008c-.644 0-1.168-.524-1.168-1.168v-61.181c0-.647-.525-1.172-1.172-1.172-.647 0-1.172.525-1.172 1.172v61.181c0 1.936 1.575 3.511 3.512 3.511h50.008c1.936 0 3.512-1.575 3.512-3.511v-3.34c0-.647-.525-1.172-1.172-1.172zM9.262 11.023c.647 0 1.172-.525 1.172-1.172v-6.34c0-.644.524-1.168 1.168-1.168h38.52v11.482c0 .647.525 1.172 1.172 1.172l11.484.002v23.905c0 .647.525 1.172 1.172 1.172.647 0 1.172-.525 1.172-1.172v-25.076c0-.311-.123-.609-.343-.829l-12.656-12.656c-.22-.22-.518-.343-.829-.343h-39.691c-1.936 0-3.512 1.575-3.512 3.512v6.34c0 .647.525 1.172 1.172 1.172zm43.203-7.022l8.655 8.655-8.655-.001v-8.653zM70.738 42.333h-48.121c-.647 0-1.172.525-1.172 1.172v25c0 .647.525 1.172 1.172 1.172h9.158c.647 0 1.172-.525 1.172-1.172 0-.647-.525-1.172-1.172-1.172h-7.986v-22.656h45.777v22.656h-32.362c-.647 0-1.172.525-1.172 1.172 0 .647.525 1.172 1.172 1.172h33.533c.647 0 1.172-.525 1.172-1.172v-25c0-.647-.525-1.172-1.172-1.172zM50.652 20.541h-28.035c-.647 0-1.172.525-1.172 1.172 0 .647.525 1.172 1.172 1.172h28.035c.647 0 1.172-.525 1.172-1.172 0-.647-.525-1.172-1.172-1.172zM50.652 27.453h-28.035c-.647 0-1.172.525-1.172 1.172 0 .647.525 1.172 1.172 1.172h28.035c.647 0 1.172-.525 1.172-1.172 0-.647-.525-1.172-1.172-1.172zM50.652 34.502h-5.539c-.647 0-1.172.525-1.172 1.172 0 .647.525 1.172 1.172 1.172h5.539c.647 0 1.172-.525 1.172-1.172 0-.647-.525-1.172-1.172-1.172zM22.617 34.502c-.647 0-1.172.525-1.172 1.172 0 .647.525 1.172 1.172 1.172h16.981c.647 0 1.172-.525 1.172-1.172 0-.647-.525-1.172-1.172-1.172h-16.981zM38.193 47.525c.106-.154.212-.28.318-.378.119-.098.272-.147.458-.147s.398.063.637.189c.504.252.756.574.756.967 0 .098-.013.203-.04.315-.013.098-.047.182-.099.252v-.021l-3.84 6.892 3.741 6.682c.066.168.099.336.099.504 0 .406-.212.729-.637.967-.318.168-.584.252-.796.252-.265 0-.504-.161-.716-.483l-3.422-6.115c-.252.462-.524.953-.816 1.471l-.895 1.597c-.292.532-.59 1.058-.895 1.576-.292.518-.564 1.009-.816 1.471-.106.154-.212.273-.318.357-.106.084-.239.126-.398.126-.226 0-.484-.084-.776-.252-.451-.266-.677-.588-.677-.967 0-.098.013-.182.04-.252l.1-.273v.021c.61-1.107 1.234-2.227 1.87-3.362.65-1.135 1.287-2.263 1.91-3.383l-3.8-6.829-.119-.294c-.04-.112-.06-.203-.06-.273 0-.378.265-.693.796-.946.212-.126.425-.189.637-.189.172 0 .318.049.438.147.119.098.232.224.338.378l3.502 6.22 3.482-6.22zM51.7 61.546c.647 0 1.172.525 1.172 1.172 0 .647-.525 1.172-1.172 1.172h-7.528c-.647 0-1.172-.525-1.172-1.172v-14.546c0-.647.525-1.172 1.172-1.172.647 0 1.172.525 1.172 1.172v13.374h6.356zM59.045 64c-.925 0-1.802-.157-2.631-.47-.817-.329-1.483-.768-2-1.317-.276-.267-.414-.643-.414-1.129 0-.329.072-.611.216-.846.156-.251.336-.376.541-.376.216 0 .462.11.739.329.517.486 1.057.839 1.622 1.058.565.219 1.189.329 1.874.329.877 0 1.55-.196 2.018-.588.468-.407.703-.995.703-1.764 0-.596-.222-1.05-.667-1.364-.432-.329-1.159-.643-2.18-.941-1.057-.298-1.916-.643-2.577-1.035-.661-.392-1.159-.893-1.495-1.505-.336-.611-.505-1.387-.505-2.328 0-.972.21-1.842.631-2.61.42-.768 1.003-1.364 1.748-1.787.757-.439 1.604-.658 2.541-.658 1.718 0 3.117.596 4.198 1.787.156.172.264.345.324.517.072.157.108.361.108.611 0 .329-.078.619-.234.87-.144.235-.318.353-.523.353-.12 0-.234-.023-.342-.071-.096-.047-.228-.133-.396-.259-.492-.47-.973-.815-1.441-1.035-.456-.235-1.021-.353-1.694-.353-.817 0-1.465.219-1.946.658-.468.423-.703 1.019-.703 1.787 0 .643.21 1.137.631 1.481.42.345 1.135.666 2.144.964 1.069.313 1.934.666 2.595 1.058.673.376 1.183.862 1.532 1.458.36.596.541 1.34.541 2.234 0 .972-.21 1.834-.631 2.587-.408.737-.991 1.317-1.748 1.74-.745.407-1.604.611-2.577.611z"/></g><defs><clipPath id="a"><path fill="#fff" d="M0 0h80v80h-80z"/></clipPath></defs></svg>