<svg width="64" height="80" fill="none" xmlns="http://www.w3.org/2000/svg"><path d="M55.95 71.977c-.648 0-1.173.525-1.173 1.172v3.34a1.17 1.17 0 01-1.168 1.167H3.602a1.17 1.17 0 01-1.168-1.168v-61.18a1.172 1.172 0 00-2.344 0v61.18A3.515 3.515 0 003.602 80H53.61a3.516 3.516 0 003.511-3.512v-3.34c0-.646-.525-1.171-1.172-1.171zM1.262 11.023c.647 0 1.172-.524 1.172-1.172v-6.34A1.17 1.17 0 013.6 2.345h38.52v11.482c0 .647.525 1.172 1.172 1.172L54.777 15v23.904a1.172 1.172 0 002.344 0V13.828c0-.31-.123-.609-.343-.829L44.12.343A1.171 1.171 0 0043.293 0H3.602A3.516 3.516 0 00.09 3.512v6.34c0 .647.525 1.171 1.172 1.171zm43.203-7.022l8.655 8.655-8.655-.002V4.001z" fill="#D5D4D0"/><path d="M62.738 42.333h-48.12c-.648 0-1.173.525-1.173 1.172v25c0 .647.525 1.172 1.172 1.172h9.159a1.172 1.172 0 000-2.344h-7.987V44.677h45.777v22.656H29.205a1.172 1.172 0 000 2.344h33.533c.647 0 1.172-.525 1.172-1.172v-25c0-.647-.524-1.172-1.172-1.172zM42.652 20.541H14.617a1.172 1.172 0 000 2.344h28.035a1.172 1.172 0 000-2.344zM42.652 27.453H14.617a1.172 1.172 0 000 2.344h28.035a1.172 1.172 0 000-2.344zM42.652 34.502h-5.539a1.172 1.172 0 000 2.344h5.539a1.172 1.172 0 000-2.344zM14.617 34.502a1.172 1.172 0 000 2.344h16.981a1.172 1.172 0 000-2.344h-16.98z" fill="#D5D4D0"/><path d="M28.134 64.45a3.741 3.741 0 003.737-3.737v-9.416a3.741 3.741 0 00-3.737-3.737h-4.962c-.647 0-1.172.525-1.172 1.172v14.546c0 .647.525 1.172 1.172 1.172h4.962zm-3.79-14.546h3.79c.768 0 1.393.625 1.393 1.393v9.416c0 .768-.625 1.393-1.393 1.393h-3.79V49.904zM42.587 61.298l-1.75-9.277-1.772 9.277c-.138.704-.249 1.21-.332 1.52a2.132 2.132 0 01-.421.823 1 1 0 01-.805.359c-.27 0-.495-.074-.672-.222a1.502 1.502 0 01-.42-.601 5.052 5.052 0 01-.266-.94c-.07-.365-.13-.703-.185-1.013l-1.802-10.417c-.108-.605-.162-1.066-.162-1.382 0-.401.098-.739.295-1.013.197-.275.44-.412.731-.412.399 0 .667.183.805.549.138.366.258.897.362 1.593l1.418 9.035 1.587-8.454c.118-.647.224-1.14.317-1.478.094-.337.246-.63.458-.876.212-.246.5-.369.864-.369.37 0 .655.13.856.39.207.254.35.532.429.834.078.303.184.802.317 1.499l1.602 8.454 1.418-9.035c.069-.47.133-.84.192-1.108.064-.267.17-.506.317-.717.153-.212.372-.317.657-.317.286 0 .527.137.724.412.202.267.303.605.303 1.013 0 .288-.054.75-.163 1.382l-1.801 10.417c-.123.704-.227 1.221-.31 1.552a2.171 2.171 0 01-.414.855c-.192.246-.465.369-.82.369a1 1 0 01-.804-.359 2.049 2.049 0 01-.42-.802c-.08-.303-.19-.816-.333-1.54zM59 57.446v2.966c0 .394-.027.71-.081.95a1.622 1.622 0 01-.303.633c-.143.19-.327.373-.554.549-.654.506-1.284.876-1.89 1.108a5.481 5.481 0 01-1.979.348c-.831 0-1.59-.183-2.274-.549-.684-.366-1.267-.897-1.75-1.593-.482-.697-.853-1.541-1.114-2.533-.256-.992-.384-2.1-.384-3.325 0-1.203.125-2.304.376-3.303.251-1 .62-1.847 1.108-2.544.487-.697 1.08-1.228 1.78-1.594.698-.372 1.49-.559 2.377-.559.728 0 1.373.14 1.934.422.561.275 1.017.623 1.366 1.045.35.422.613.869.79 1.34.177.472.266.89.266 1.256 0 .394-.104.732-.31 1.014-.202.274-.446.411-.731.411a.778.778 0 01-.458-.158 1.258 1.258 0 01-.362-.444c-.27-.605-.5-1.062-.687-1.372-.186-.31-.44-.57-.76-.78-.315-.212-.719-.317-1.21-.317-.508 0-.96.127-1.36.38-.398.246-.74.609-1.026 1.087-.28.471-.497 1.052-.65 1.741-.147.69-.22 1.453-.22 2.29 0 1.816.29 3.212.87 4.19.586.979 1.4 1.468 2.444 1.468.507 0 .982-.095 1.425-.285.448-.19.901-.461 1.359-.813v-2.512h-1.698c-.409 0-.72-.088-.93-.264-.207-.176-.31-.475-.31-.897 0-.345.085-.63.258-.855a.864.864 0 01.716-.338h2.488c.305 0 .564.04.775.117.212.077.382.25.51.517.133.267.199.668.199 1.203z" fill="#D5D4D0"/></svg>