<svg width="16" height="16" viewBox="0 0 16 16" xmlns="http://www.w3.org/2000/svg" fill="none"><path d="M14.644 1.676c-1.754-1.716-4.557-1.715-6.31.001l-7.353 7.353c-1.33 1.361-1.304 3.542.057 4.871 1.339 1.308 3.476 1.308 4.815 0l6.658-6.658c.866-.866.866-2.269 0-3.135-.866-.866-2.269-.866-3.135 0l-6.369 6.369c-.222.23-.216.597.014.819.224.217.58.217.804 0l6.369-6.369c.422-.405 1.093-.39 1.497.032.392.41.392 1.056 0 1.465l-6.658 6.658c-.899.887-2.347.876-3.234-.023-.878-.89-.878-2.321 0-3.211l7.353-7.353c1.31-1.31 3.434-1.311 4.744-.001 1.31 1.31 1.311 3.434.001 4.744l-7.353 7.353c-.243.208-.271.574-.063.816.208.243.573.271.816.063l.063-.063 7.353-7.353c1.742-1.781 1.711-4.637-.069-6.379z" fill="#155EA4" clip-path="url(#a)"/><defs><clipPath id="a"><path fill="#fff" d="M0 0h16v16h-16z"/></clipPath></defs></svg>