<svg width="64" height="80" fill="none" xmlns="http://www.w3.org/2000/svg"><path d="M55.95 71.977c-.648 0-1.172.525-1.172 1.172v3.34a1.17 1.17 0 01-1.168 1.167H3.602a1.17 1.17 0 01-1.168-1.168v-61.18a1.172 1.172 0 00-2.344 0v61.18A3.515 3.515 0 003.602 80H53.61a3.516 3.516 0 003.512-3.512v-3.34c0-.646-.525-1.171-1.172-1.171zM1.262 11.023c.647 0 1.172-.524 1.172-1.172v-6.34A1.17 1.17 0 013.6 2.345h38.52v11.482c0 .647.525 1.172 1.172 1.172L54.777 15v23.904a1.172 1.172 0 002.344 0V13.828c0-.31-.123-.609-.343-.829L44.122.343A1.171 1.171 0 0043.293 0H3.602A3.516 3.516 0 00.09 3.512v6.34c0 .647.525 1.171 1.172 1.171zm43.203-7.022l8.655 8.655-8.655-.002V4.001z" fill="#D5D4D0"/><path d="M62.738 42.333h-48.12c-.648 0-1.173.525-1.173 1.172v25c0 .647.525 1.172 1.172 1.172h9.159a1.172 1.172 0 000-2.344h-7.987V44.677h45.777v22.656H29.205a1.172 1.172 0 000 2.344h33.533c.647 0 1.172-.525 1.172-1.172v-25c0-.647-.524-1.172-1.172-1.172zM42.652 20.541H14.617a1.172 1.172 0 000 2.344h28.035a1.172 1.172 0 000-2.344zM42.652 27.453H14.617a1.172 1.172 0 000 2.344h28.035a1.172 1.172 0 000-2.344zM42.652 34.502h-5.539a1.172 1.172 0 000 2.344h5.539a1.172 1.172 0 000-2.344zM14.617 34.502a1.172 1.172 0 000 2.344h16.981a1.172 1.172 0 000-2.344h-16.98z" fill="#D5D4D0"/><path d="M27.105 56.876h-3.713a.557.557 0 01-.487-.273c-.108-.196-.163-.455-.163-.777 0-.715.253-1.072.758-1.072h4.434c.445 0 .758-.147.938-.441.18-.294.27-.617.27-.967v-2.71c0-.35-.09-.673-.27-.967-.18-.294-.493-.442-.938-.442h-3.806v13.701c0 .673-.354 1.009-1.064 1.009-.71 0-1.064-.336-1.064-1.009V48.366c0-.504.108-.84.325-1.009.228-.168.499-.252.811-.252h5.25c.312 0 .637.077.973.231.337.154.662.35.974.589h-.018c.313.266.554.616.722 1.05.168.42.252.91.252 1.471v3.068c0 1.135-.324 1.982-.974 2.543a3.772 3.772 0 01-.433.315c-.144.098-.294.196-.45.294l2.886 5.548c.036.07.072.16.108.273a.939.939 0 01.054.273c0 .336-.204.659-.613.967v-.021c-.277.196-.511.294-.704.294-.276 0-.499-.161-.667-.483l.018.02-3.41-6.66zM38.898 49.164l-3.95 14.121v-.02c-.072.21-.174.385-.307.525a.598.598 0 01-.45.189c-.097 0-.193-.014-.29-.042a2.379 2.379 0 01-.27-.063h.018c-.685-.252-.938-.7-.757-1.345l4.112-14.562a1.31 1.31 0 01.307-.568.938.938 0 01.541-.273c.205-.042.403-.07.595-.084a3.34 3.34 0 01.451-.042c.108 0 .259.014.451.042.193.014.391.035.596.063.168.028.33.133.486.315.169.182.295.364.38.547l2.038 7.291c.697 2.438 1.382 4.861 2.056 7.271.168.644-.084 1.093-.758 1.345a2.379 2.379 0 01-.27.063.7.7 0 01-.721-.147 1.251 1.251 0 01-.29-.526v.021l-3.968-14.12zM51.625 56.876h-3.233a.557.557 0 01-.487-.273c-.108-.196-.163-.455-.163-.777 0-.715.253-1.072.758-1.072h3.955c.444 0 .757-.147.938-.441.18-.294.27-.617.27-.967v-2.71c0-.35-.09-.673-.27-.967-.18-.294-.494-.442-.938-.442h-3.806v13.701c0 .673-.355 1.009-1.065 1.009s-1.064-.336-1.064-1.009V48.366c0-.504.108-.84.325-1.009.228-.168.499-.252.811-.252h5.25c.312 0 .637.077.974.231.336.154.66.35.973.589h-.017c.312.266.553.616.721 1.05.168.42.252.91.252 1.471v3.068c0 1.135-.324 1.982-.973 2.543a3.772 3.772 0 01-.433.315 14.93 14.93 0 01-.451.294l2.886 5.548c.036.07.072.16.108.273a.939.939 0 01.054.273c0 .336-.204.659-.613.967v-.021c-.277.196-.511.294-.704.294-.276 0-.499-.161-.667-.483l.018.02-3.41-6.66z" fill="#D5D4D0"/><path fill="#D5D4D0" d="M36 56h6v2h-6z"/></svg>