<svg width="64" height="80" viewBox="0 0 64 80" xmlns="http://www.w3.org/2000/svg" fill="none"><path d="M55.949 71.977c-.647 0-1.172.525-1.172 1.172v3.34c0 .644-.524 1.168-1.168 1.168h-50.008c-.644 0-1.168-.524-1.168-1.168v-61.181c0-.647-.525-1.172-1.172-1.172-.647 0-1.172.525-1.172 1.172v61.181c0 1.936 1.575 3.511 3.512 3.511h50.008c1.936 0 3.512-1.575 3.512-3.511v-3.34c0-.647-.525-1.172-1.172-1.172zM1.262 11.023c.647 0 1.172-.525 1.172-1.172v-6.34c0-.644.524-1.168 1.168-1.168h38.52v11.482c0 .647.525 1.172 1.172 1.172l11.484.002v23.905c0 .647.525 1.172 1.172 1.172.647 0 1.172-.525 1.172-1.172v-25.076c0-.311-.123-.609-.343-.829l-12.656-12.656c-.22-.22-.518-.343-.829-.343h-39.691c-1.936 0-3.512 1.575-3.512 3.512v6.34c0 .647.525 1.172 1.172 1.172zm43.203-7.022l8.655 8.655-8.655-.001v-8.653zM62.738 42.333h-48.121c-.647 0-1.172.525-1.172 1.172v25c0 .647.525 1.172 1.172 1.172h9.158c.647 0 1.172-.525 1.172-1.172 0-.647-.525-1.172-1.172-1.172h-7.986v-22.656h45.777v22.656h-32.362c-.647 0-1.172.525-1.172 1.172 0 .647.525 1.172 1.172 1.172h33.533c.647 0 1.172-.525 1.172-1.172v-25c0-.647-.524-1.172-1.172-1.172zM42.652 20.541h-28.035c-.647 0-1.172.525-1.172 1.172 0 .647.525 1.172 1.172 1.172h28.035c.647 0 1.172-.525 1.172-1.172 0-.647-.525-1.172-1.172-1.172zM42.652 27.453h-28.035c-.647 0-1.172.525-1.172 1.172 0 .647.525 1.172 1.172 1.172h28.035c.647 0 1.172-.525 1.172-1.172 0-.647-.525-1.172-1.172-1.172zM42.652 34.502h-5.539c-.647 0-1.172.525-1.172 1.172 0 .647.525 1.172 1.172 1.172h5.539c.647 0 1.172-.525 1.172-1.172 0-.647-.525-1.172-1.172-1.172zM14.617 34.502c-.647 0-1.172.525-1.172 1.172 0 .647.525 1.172 1.172 1.172h16.981c.647 0 1.172-.525 1.172-1.172 0-.647-.525-1.172-1.172-1.172h-16.981zM54.329 57.446v2.966c0 .394-.027.711-.081.95-.054.232-.155.443-.303.633-.143.19-.327.373-.554.549-.655.507-1.285.876-1.89 1.108-.605.232-1.265.348-1.979.348-.832 0-1.59-.183-2.274-.549-.684-.366-1.267-.897-1.75-1.594-.482-.697-.854-1.541-1.115-2.533-.256-.992-.384-2.1-.384-3.325 0-1.203.126-2.304.377-3.303.251-.999.62-1.847 1.107-2.544.487-.697 1.08-1.228 1.779-1.594.699-.373 1.492-.559 2.378-.559.728 0 1.373.141 1.934.422.561.274 1.017.623 1.366 1.045.349.422.613.869.79 1.34.177.471.266.89.266 1.256 0 .394-.103.732-.31 1.013-.202.274-.445.412-.731.412-.158 0-.31-.053-.458-.158-.143-.105-.263-.253-.362-.443-.271-.605-.5-1.062-.687-1.372-.187-.31-.441-.57-.761-.781-.315-.211-.719-.317-1.211-.317-.507 0-.96.127-1.358.38-.399.246-.741.609-1.026 1.087-.281.471-.497 1.052-.65 1.741-.148.69-.221 1.453-.221 2.29 0 1.815.29 3.212.871 4.19.586.978 1.4 1.467 2.444 1.467.507 0 .982-.095 1.425-.285.448-.19.901-.461 1.358-.813v-2.512h-1.698c-.409 0-.719-.088-.93-.264-.207-.176-.31-.475-.31-.897 0-.345.086-.63.258-.855.177-.225.416-.338.716-.338h2.488c.305 0 .564.039.775.116.212.077.382.25.509.517.133.267.199.669.199 1.203zM41.871 53.879v-2.142c0-2.061-1.676-3.737-3.737-3.737h-4.962c-.647 0-1.172.525-1.172 1.172v14.546c0 .647.525 1.172 1.172 1.172.647 0 1.172-.525 1.172-1.172v-6.101h3.791c2.06 0 3.737-1.677 3.737-3.737zm-2.344 0c0 .768-.625 1.393-1.393 1.393h-3.791v-4.929h3.791c.768 0 1.393.625 1.393 1.393v2.142zM24.561 64.996c-1.041.047-1.561-.372-1.561-1.258 0-.38.088-.665.264-.855.162-.206.426-.324.791-.356l.649-.047c.554-.032.973-.237 1.257-.617.284-.38.426-.957.426-1.733v-10.611c0-.459.115-.823.345-1.092.243-.285.561-.427.953-.427.405 0 .723.142.953.427.243.269.365.633.365 1.092v10.611c0 2.991-1.264 4.597-3.791 4.819l-.649.047z" fill="#D5D4D0"/></svg>