<svg width="64" height="80" fill="none" xmlns="http://www.w3.org/2000/svg"><path d="M55.95 71.977c-.648 0-1.172.525-1.172 1.172v3.34a1.17 1.17 0 01-1.168 1.167H3.602a1.17 1.17 0 01-1.168-1.168v-61.18a1.172 1.172 0 00-2.344 0v61.18A3.515 3.515 0 003.602 80H53.61a3.516 3.516 0 003.512-3.512v-3.34c0-.646-.525-1.171-1.172-1.171zM1.262 11.023c.647 0 1.172-.524 1.172-1.172v-6.34A1.17 1.17 0 013.6 2.345h38.52v11.482c0 .647.525 1.172 1.172 1.172L54.777 15v23.904a1.172 1.172 0 002.344 0V13.828c0-.31-.123-.609-.343-.829L44.122.343A1.171 1.171 0 0043.293 0H3.602A3.516 3.516 0 00.09 3.512v6.34c0 .647.525 1.171 1.172 1.171zm43.203-7.022l8.655 8.655-8.655-.002V4.001z" fill="#D5D4D0"/><path d="M62.738 42.333h-48.12c-.648 0-1.173.525-1.173 1.172v25c0 .647.525 1.172 1.172 1.172h9.159a1.172 1.172 0 000-2.344h-7.987V44.677h45.777v22.656H29.205a1.172 1.172 0 000 2.344h33.533c.647 0 1.172-.525 1.172-1.172v-25c0-.647-.524-1.172-1.172-1.172zM42.652 20.541H14.617a1.172 1.172 0 000 2.344h28.035a1.172 1.172 0 000-2.344zM42.652 27.453H14.617a1.172 1.172 0 000 2.344h28.035a1.172 1.172 0 000-2.344zM42.652 34.502h-5.539a1.172 1.172 0 000 2.344h5.539a1.172 1.172 0 000-2.344zM14.617 34.502a1.172 1.172 0 000 2.344h16.981a1.172 1.172 0 000-2.344h-16.98z" fill="#D5D4D0"/><path d="M42.582 47.525c.106-.154.212-.28.319-.378a.697.697 0 01.457-.147c.186 0 .398.063.637.19.504.251.756.574.756.966 0 .098-.013.203-.04.315a.525.525 0 01-.1.252v-.02l-3.84 6.892 3.741 6.682c.067.168.1.336.1.504 0 .407-.212.729-.637.967-.318.168-.584.252-.796.252-.265 0-.504-.161-.716-.483l-3.422-6.115c-.252.462-.524.952-.816 1.47l-.896 1.598c-.291.532-.59 1.057-.895 1.576-.292.518-.564 1.008-.816 1.47a1.632 1.632 0 01-.318.358.62.62 0 01-.398.126c-.226 0-.484-.084-.776-.252-.451-.266-.677-.588-.677-.967 0-.098.014-.182.04-.252a3.65 3.65 0 01.1-.273v.02c.61-1.106 1.233-2.227 1.87-3.361.65-1.135 1.287-2.263 1.91-3.383l-3.8-6.83a3.181 3.181 0 01-.12-.294.862.862 0 01-.06-.273c0-.378.266-.694.797-.946.212-.126.424-.189.636-.189.173 0 .319.049.438.147.12.098.232.224.338.378l3.502 6.22 3.482-6.22zM23.253 64c-.49 0-.822-.133-.994-.4a1.589 1.589 0 01-.259-.882V48.555c0-.322.086-.61.259-.862.172-.266.504-.399.994-.399h6.925c.49 0 .75.35.776 1.05.026.715-.232 1.073-.776 1.073h-5.83v12.46h6.188c.49 0 .743.344.756 1.03.027.729-.225 1.093-.756 1.093h-7.283z" fill="#D5D4D0"/><path d="M23.253 64c-.49 0-.822-.133-.994-.4a1.589 1.589 0 01-.259-.882v-7.457c0-.322.086-.61.259-.862.172-.266.504-.399.994-.399h6.925c.49 0 .75.35.776 1.05.026.715-.232 1.072-.776 1.072h-5.83v5.756h6.188c.49 0 .743.343.756 1.03.027.728-.225 1.092-.756 1.092h-7.283zM48.254 64c-.491 0-.823-.133-.995-.4a1.589 1.589 0 01-.259-.882V48.555c0-.322.086-.61.259-.862.172-.266.504-.399.995-.399h6.924c.49 0 .75.35.776 1.05.026.715-.232 1.073-.776 1.073h-5.83v12.46h6.188c.49 0 .743.344.756 1.03.027.729-.225 1.093-.756 1.093h-7.282z" fill="#D5D4D0"/><path d="M48.254 64c-.491 0-.823-.133-.995-.4a1.589 1.589 0 01-.259-.882v-7.457c0-.322.086-.61.259-.862.172-.266.504-.399.995-.399h6.924c.49 0 .75.35.776 1.05.026.715-.232 1.072-.776 1.072h-5.83v5.756h6.188c.49 0 .743.343.756 1.03.027.728-.225 1.092-.756 1.092h-7.282z" fill="#D5D4D0"/></svg>