<svg width="13" height="11" viewBox="0 0 13 11" fill="none" xmlns="http://www.w3.org/2000/svg">
<path d="M11.8567 0.548828H1.14185C0.965969 0.548828 0.801311 0.592068 0.652344 0.66334L6.47388 6.48488L7.77868 5.23091C7.77868 5.23091 7.77878 5.23078 7.77881 5.23073C7.77883 5.23068 7.77893 5.23063 7.77893 5.23063L12.3464 0.663441C12.1974 0.592119 12.0326 0.548828 11.8567 0.548828Z" fill="#155EA4"/>
<path d="M12.8841 1.20215L8.58594 5.50012L12.884 9.79817C12.9553 9.6492 12.9985 9.48455 12.9985 9.30866V1.69148C12.9985 1.5157 12.9554 1.35106 12.8841 1.20215Z" fill="#155EA4"/>
<path d="M0.114512 1.20166C0.0432402 1.35063 0 1.51529 0 1.69117V9.30835C0 9.48413 0.0431895 9.64882 0.11441 9.79773L4.41261 5.49976L0.114512 1.20166Z" fill="#155EA4"/>
<path d="M8.04833 6.03863L6.74335 7.29274C6.66896 7.36714 6.57151 7.40434 6.47408 7.40434C6.37666 7.40434 6.27919 7.36714 6.20482 7.29274L4.95062 6.03857L0.652344 10.3366C0.801336 10.4079 0.966096 10.4512 1.14203 10.4512H11.8569C12.0328 10.4512 12.1974 10.4079 12.3464 10.3367L8.04833 6.03863Z" fill="#155EA4"/>
</svg>
