<svg width="13" height="11" viewBox="0 0 13 11" xmlns="http://www.w3.org/2000/svg" fill="none"><path d="M11.857.549h-10.715c-.176 0-.341.043-.49.115l5.822 5.822 1.305-1.254 4.567-4.567c-.149-.071-.314-.115-.49-.115zM12.884 1.202l-4.298 4.298 4.298 4.298c.071-.149.114-.314.114-.49v-7.617c0-.176-.043-.34-.114-.489zM.115 1.202c-.071.149-.115.314-.115.49v7.617c0 .176.043.34.114.489l4.298-4.298-4.298-4.298zM8.048 6.039l-1.305 1.254c-.074.074-.172.112-.269.112-.097 0-.195-.037-.269-.112l-1.254-1.254-4.298 4.298c.149.071.314.115.49.115h10.715c.176 0 .341-.043.489-.114l-4.298-4.298z" fill="#C92A39"/></svg>