<svg width="12" height="12" viewBox="0 0 12 12" xmlns="http://www.w3.org/2000/svg" fill="none"><path d="M11.037 7.877c-.735 0-1.456-.115-2.14-.341-.335-.114-.747-.009-.951.201l-1.349 1.019c-1.565-.835-2.529-1.799-3.353-3.352l.989-1.314c.257-.257.349-.631.239-.983-.227-.687-.342-1.408-.342-2.143 0-.531-.432-.963-.963-.963h-2.204c-.531 0-.963.432-.963.963 0 6.086 4.951 11.037 11.037 11.037.531 0 .963-.432.963-.963v-2.198c0-.531-.432-.963-.963-.963z" fill="#D6E2EB" clip-path="url(#a)"/><defs><clipPath id="a"><path fill="#fff" d="M0 0h12v12h-12z"/></clipPath></defs></svg>