<svg width="64" height="80" fill="none" xmlns="http://www.w3.org/2000/svg"><path d="M55.95 71.977c-.648 0-1.173.525-1.173 1.172v3.34a1.17 1.17 0 01-1.168 1.167H3.602a1.17 1.17 0 01-1.168-1.168v-61.18a1.172 1.172 0 00-2.344 0v61.18A3.515 3.515 0 003.602 80H53.61a3.516 3.516 0 003.511-3.512v-3.34c0-.646-.525-1.171-1.172-1.171zM1.262 11.023c.647 0 1.172-.524 1.172-1.172v-6.34A1.17 1.17 0 013.6 2.345h38.52v11.482c0 .647.525 1.172 1.172 1.172L54.777 15v23.904a1.172 1.172 0 002.344 0V13.828c0-.31-.123-.609-.343-.829L44.12.343A1.171 1.171 0 0043.293 0H3.602A3.516 3.516 0 00.09 3.512v6.34c0 .647.524 1.171 1.172 1.171zm43.203-7.022l8.655 8.655-8.655-.002V4.001z" fill="#D5D4D0"/><path d="M62.738 42.333h-48.12c-.648 0-1.173.525-1.173 1.172v25c0 .647.525 1.172 1.172 1.172h9.159a1.172 1.172 0 000-2.344h-7.987V44.677h45.777v22.656H29.205a1.172 1.172 0 000 2.344h33.533c.647 0 1.172-.525 1.172-1.172v-25c0-.647-.524-1.172-1.172-1.172zM42.652 20.541H14.617a1.172 1.172 0 000 2.344h28.035a1.172 1.172 0 000-2.344zM42.652 27.453H14.617a1.172 1.172 0 000 2.344h28.035a1.172 1.172 0 000-2.344zM42.652 34.502h-5.539a1.172 1.172 0 000 2.344h5.539a1.172 1.172 0 000-2.344zM14.617 34.502a1.172 1.172 0 000 2.344h16.981a1.172 1.172 0 000-2.344h-16.98z" fill="#D5D4D0"/><path d="M31.113 53.44v-2.143a3.741 3.741 0 00-3.737-3.737h-4.962c-.647 0-1.172.525-1.172 1.172v14.546a1.172 1.172 0 102.344 0v-6.101h3.79a3.742 3.742 0 003.737-3.737zm-2.343 0c0 .768-.625 1.393-1.394 1.393h-3.79v-4.93h3.79c.769 0 1.394.626 1.394 1.394v2.143zM55.261 49.904a1.172 1.172 0 000-2.344h-7.527c-.648 0-1.172.525-1.172 1.172v14.546a1.172 1.172 0 002.344 0v-6.101h6.355a1.172 1.172 0 000-2.344h-6.355v-4.929h6.355zM39.876 64.45a3.741 3.741 0 003.737-3.737v-9.416a3.741 3.741 0 00-3.737-3.737h-4.962c-.647 0-1.172.525-1.172 1.172v14.546c0 .647.525 1.172 1.172 1.172h4.962zm-3.79-14.546h3.79c.768 0 1.393.625 1.393 1.393v9.416c0 .768-.625 1.393-1.393 1.393h-3.79V49.904z" fill="#D5D4D0"/></svg>