<svg width="64" height="80" viewBox="0 0 64 80" xmlns="http://www.w3.org/2000/svg" fill="none"><path d="M55.949 71.977c-.647 0-1.172.525-1.172 1.172v3.34c0 .644-.524 1.168-1.168 1.168h-50.008c-.644 0-1.168-.524-1.168-1.168v-61.181c0-.647-.525-1.172-1.172-1.172-.647 0-1.172.525-1.172 1.172v61.181c0 1.936 1.575 3.511 3.512 3.511h50.008c1.936 0 3.512-1.575 3.512-3.511v-3.34c0-.647-.525-1.172-1.172-1.172zM1.262 11.023c.647 0 1.172-.525 1.172-1.172v-6.34c0-.644.524-1.168 1.168-1.168h38.52v11.482c0 .647.525 1.172 1.172 1.172l11.485.002v23.905c0 .647.525 1.172 1.172 1.172.647 0 1.172-.525 1.172-1.172v-25.076c0-.311-.123-.609-.343-.829l-12.656-12.656c-.22-.22-.518-.343-.829-.343h-39.691c-1.936 0-3.512 1.575-3.512 3.512v6.34c0 .647.525 1.172 1.172 1.172zm43.203-7.022l8.655 8.655-8.655-.001v-8.653zM62.738 42.333h-48.121c-.647 0-1.172.525-1.172 1.172v25c0 .647.525 1.172 1.172 1.172h9.158c.647 0 1.172-.525 1.172-1.172 0-.647-.525-1.172-1.172-1.172h-7.986v-22.656h45.777v22.656h-32.362c-.647 0-1.172.525-1.172 1.172 0 .647.525 1.172 1.172 1.172h33.533c.647 0 1.172-.525 1.172-1.172v-25c0-.647-.524-1.172-1.172-1.172zM42.652 20.541h-28.035c-.647 0-1.172.525-1.172 1.172 0 .647.525 1.172 1.172 1.172h28.035c.647 0 1.172-.525 1.172-1.172 0-.647-.525-1.172-1.172-1.172zM42.652 27.453h-28.035c-.647 0-1.172.525-1.172 1.172 0 .647.525 1.172 1.172 1.172h28.035c.647 0 1.172-.525 1.172-1.172 0-.647-.525-1.172-1.172-1.172zM42.652 34.502h-5.539c-.647 0-1.172.525-1.172 1.172 0 .647.525 1.172 1.172 1.172h5.539c.647 0 1.172-.525 1.172-1.172 0-.647-.525-1.172-1.172-1.172zM14.617 34.502c-.647 0-1.172.525-1.172 1.172 0 .647.525 1.172 1.172 1.172h16.981c.647 0 1.172-.525 1.172-1.172 0-.647-.525-1.172-1.172-1.172h-16.981zM34.775 62.412c.727 0 1.09.404 1.09 1.211 0 .823-.363 1.235-1.09 1.235h-7.74c-.315 0-.569-.119-.763-.356-.182-.253-.273-.57-.273-.95s.097-.744.291-1.092l6.504-11.895h-5.687c-.727 0-1.09-.404-1.09-1.211 0-.823.363-1.235 1.09-1.235h7.504c.315 0 .563.127.745.38.194.237.291.538.291.902s-.103.728-.309 1.092l-6.504 11.919h5.941zM38.819 65c-.351 0-.636-.142-.854-.427-.206-.285-.309-.657-.309-1.116v-13.937c0-.459.103-.823.309-1.092.218-.285.503-.427.854-.427.363 0 .648.142.854.427.218.269.327.633.327 1.092v13.937c0 .459-.109.831-.327 1.116-.206.285-.491.427-.854.427zM52.871 53.879v-2.142c0-2.061-1.676-3.737-3.737-3.737h-4.962c-.647 0-1.172.525-1.172 1.172v14.546c0 .647.525 1.172 1.172 1.172.647 0 1.172-.525 1.172-1.172v-6.101h3.791c2.06 0 3.737-1.677 3.737-3.737zm-2.344 0c0 .768-.625 1.393-1.393 1.393h-3.791v-4.929h3.791c.768 0 1.393.625 1.393 1.393v2.142z" fill="#D5D4D0"/></svg>