<svg width="20" height="16" viewBox="0 0 20 16" xmlns="http://www.w3.org/2000/svg" fill="none"><path d="M19.413 2.057h-6.811c-.072-.168-.176-.325-.313-.462l-1.077-1.076c-.28-.28-.652-.434-1.048-.434s-.768.154-1.048.434l-1.076 1.076c-.137.137-.241.294-.313.462h-7.14c-.324 0-.587.263-.587.586 0 .324.263.587.587.587h7.14c.072.168.176.325.313.462l1.076 1.076c.28.28.652.434 1.048.434s.768-.154 1.048-.434l1.076-1.076c.137-.137.241-.294.313-.462h6.811c.324 0 .587-.263.587-.587 0-.324-.263-.586-.587-.586zm-7.953.805l-1.077 1.076c-.058.058-.136.091-.219.091-.083 0-.16-.032-.219-.091l-1.076-1.076c-.121-.121-.121-.317 0-.438l1.076-1.076c.058-.058.136-.091.219-.091.083 0 .16.032.219.091l1.077 1.076c.121.121.121.317 0 .438zM19.413 7.492h-11.44c-.073-.17-.179-.327-.314-.462l-1.076-1.076c-.28-.28-.652-.434-1.048-.434s-.768.154-1.048.434l-1.076 1.076c-.137.137-.241.294-.313.462h-2.51c-.324 0-.587.263-.587.586 0 .324.263.587.587.587h2.51c.072.168.176.325.313.462l1.076 1.076c.28.28.652.434 1.048.434s.768-.154 1.048-.434l1.076-1.076c.135-.135.241-.292.314-.462h11.44c.324 0 .587-.263.587-.587 0-.324-.263-.587-.587-.587zm-12.584.805l-1.076 1.076c-.058.058-.136.091-.219.091-.083 0-.16-.032-.219-.091l-1.076-1.076c-.121-.121-.121-.317 0-.438l1.076-1.076c.058-.058.136-.091.219-.091.083 0 .16.032.219.091l1.076 1.076c.058.058.091.136.091.219 0 .083-.032.16-.091.219zM19.413 12.77h-2.901c-.072-.168-.176-.325-.313-.462l-1.077-1.076c-.28-.28-.652-.434-1.048-.434s-.768.154-1.048.434l-1.077 1.077c-.137.137-.241.294-.313.462h-11.05c-.324 0-.587.263-.587.586 0 .324.263.587.587.587h11.05c.072.168.177.325.313.462l1.076 1.077c.28.28.652.434 1.048.434s.768-.154 1.048-.434l1.076-1.077c.137-.137.241-.294.313-.462h2.901c.324 0 .587-.263.587-.587 0-.324-.263-.586-.587-.586zm-4.043.805l-1.077 1.076c-.058.058-.136.091-.219.091-.083 0-.16-.032-.219-.091l-1.076-1.076c-.121-.121-.121-.317 0-.438l1.076-1.076c.058-.059.136-.091.219-.091.083 0 .16.032.219.091l1.077 1.076c.121.121.121.317 0 .438z" fill="#155EA4"/></svg>