<svg width="105" height="32" fill="none" xmlns="http://www.w3.org/2000/svg"><path d="M53.42 24.169l-.0212-10.8296-5.2833 8.9636h-1.334l-5.2833-8.8234v10.693h-2.8274V7.83105h2.4594l6.3625 10.80805 6.2954-10.80805h2.4346l.046 16.34155H53.42v-.0036zM72.8333 21.627v2.5456H60.7699V7.83105h11.7414v2.54565h-8.7547v4.2499h7.7638v2.4988h-7.7638v4.5052h9.0767v-.0036zM87.8373 10.3982h-5.3292v13.7744h-2.9654V10.3982h-5.3081V7.83105h13.6027v2.56715zM100.265 20.3902h-8.0397l-1.5854 3.7824h-3.0786l7.2366-16.34155h2.9407L105 24.1726h-3.125l-1.61-3.7824zm-.9871-2.3839l-3.0327-7.1442-3.0114 7.1442h6.0441z" fill="#25282B"/><path fill-rule="evenodd" clip-rule="evenodd" d="M12.4173 22.7308l-.0036-3.4948-7.22952.0036 7.30742-1.9165-.0036-2.8044-7.47014-1.8445 7.46664-.0072-.0531-.1043h.0531l-.0071-7.30607L14.314 12.613l2.7673-.0036 1.8719-7.41389.0036 3.07056 3.4466-.0036L22.3928 0l-4.9612.00719101L15.6658 6.78831 13.9849.0107865 8.97058.014382 8.98119 9.1218 0 9.13258l.00707738 5.08402L6.69166 15.9029.0106161 17.7115l.0070773 5.0301L12.4173 22.7308zm9.9897-10.0782l-3.4467.0036 3.4467-.0036z" fill="#155EA4"/><path fill-rule="evenodd" clip-rule="evenodd" d="M18.9709 9.26909l.0036 3.49481 7.2295-.0036-7.3074 1.9128.0035 2.8045 7.4702 1.8445-7.4666.0072.0531.1043h-.0531l.0071 7.3061-1.8366-7.3565-2.7673.0036-1.8719 7.414-.0036-3.0706-3.44666.0036.01062 8.2661 4.96124-.0072 1.7658-6.7811 1.6773 6.7739 5.0144-.0072-.0106-9.1074 8.9847-.0036-.0071-5.0841-6.6846-1.6862 6.6811-1.8086-.0071-5.0301-12.3996.01079z" fill="#C92A39"/></svg>