<svg width="1000" height="1000" fill="none" xmlns="http://www.w3.org/2000/svg"><symbol id="a" viewBox="0 0 1000 1000"><rect x="-.00006104" fill="#E5E5E5"/></symbol><symbol id="b" viewBox="0 0 1000 1000"><path fill-rule="evenodd" clip-rule="evenodd" d="M484.775 429.951v-7.217h-6.313l15.299-3.944v-5.804l-15.67-3.794h15.67l-.075-.224h.075v-15.104l3.862 15.179h5.792l3.936-15.328v6.324h7.204V383h-10.397l-3.713 13.989L496.954 383h-10.546v18.825h-18.789v10.492l14.036 3.497-14.036 3.72v10.417h17.156zm29.78-20.834h-7.204 7.204z" fill="#25282B"/><path fill-rule="evenodd" clip-rule="evenodd" d="M533.27 402.123h-26.067v7.143h15.224l-15.224 3.944v5.878l15.521 3.72h-15.521v15.254l-3.862-15.105h-5.793l-3.936 15.179v-15.179h-7.203V449h10.397l3.639-13.989 3.49 13.989h10.472v-18.825h18.789v-10.492l-13.888-3.497 13.888-3.72v-10.343h.074z" fill="#787B7E"/><path d="M295.255 508.047c2.223.765 3.954 1.968 5.193 3.608 1.276 1.603 1.914 3.48 1.914 5.63 0 2.333-.766 4.355-2.296 6.068-1.531 1.713-3.608 3.025-6.232 3.936-2.588.911-5.431 1.367-8.528 1.367-2.624 0-5.248-.328-7.872-.984-2.588-.656-5.048-1.658-7.38-3.007l2.733-6.341c1.676 1.02 3.517 1.804 5.521 2.351 2.041.51 4.027.765 5.959.765 2.624 0 4.792-.474 6.505-1.421 1.75-.948 2.624-2.278 2.624-3.991 0-1.421-.601-2.496-1.804-3.225-1.166-.729-2.77-1.094-4.81-1.094h-9.348v-6.669h8.692c1.785 0 3.17-.364 4.154-1.093 1.021-.729 1.531-1.731 1.531-3.007 0-1.494-.729-2.66-2.187-3.499-1.421-.838-3.262-1.257-5.521-1.257-1.677 0-3.408.237-5.193.711-1.786.437-3.481 1.111-5.084 2.022l-2.679-6.888c4.045-2.077 8.419-3.116 13.12-3.116 2.988 0 5.74.438 8.255 1.312 2.514.875 4.519 2.151 6.013 3.827 1.494 1.676 2.241 3.626 2.241 5.849 0 1.823-.492 3.444-1.476 4.866-.984 1.421-2.332 2.514-4.045 3.28zm24.887-9.895c4.555 0 8.054 1.093 10.496 3.28 2.442 2.15 3.663 5.412 3.663 9.785V528h-7.982v-3.663c-1.603 2.734-4.592 4.1-8.965 4.1-2.26 0-4.228-.382-5.904-1.148-1.64-.765-2.897-1.822-3.772-3.17-.875-1.349-1.312-2.879-1.312-4.592 0-2.734 1.02-4.884 3.061-6.451 2.078-1.567 5.266-2.351 9.567-2.351h6.779c0-1.858-.565-3.28-1.695-4.264-1.13-1.02-2.825-1.53-5.084-1.53-1.567 0-3.116.255-4.647.765-1.494.474-2.77 1.13-3.826 1.968l-3.062-5.959c1.604-1.129 3.517-2.004 5.74-2.624 2.26-.619 4.574-.929 6.943-.929zm-.656 24.545c1.458 0 2.751-.328 3.881-.984 1.13-.692 1.932-1.694 2.406-3.006V515.7h-5.85c-3.498 0-5.248 1.148-5.248 3.444 0 1.093.419 1.968 1.258 2.624.874.62 2.059.929 3.553.929zm45.784-17.11h-15.088V528h-8.473v-29.411h23.561v6.998zm21.849-7.435c2.733 0 5.211.638 7.434 1.913 2.26 1.239 4.028 3.007 5.303 5.303 1.276 2.26 1.913 4.902 1.913 7.927 0 3.025-.637 5.685-1.913 7.981-1.275 2.26-3.043 4.027-5.303 5.303-2.223 1.239-4.701 1.858-7.434 1.858-3.754 0-6.706-1.184-8.856-3.553v13.721h-8.528v-40.016h8.145v3.39c2.114-2.551 5.193-3.827 9.239-3.827zm-1.476 23.288c2.186 0 3.972-.729 5.357-2.187 1.421-1.494 2.132-3.48 2.132-5.958 0-2.479-.711-4.447-2.132-5.904-1.385-1.495-3.171-2.242-5.357-2.242-2.187 0-3.991.747-5.412 2.242-1.385 1.457-2.078 3.425-2.078 5.904 0 2.478.693 4.464 2.078 5.958 1.421 1.458 3.225 2.187 5.412 2.187zm50.768-22.851l-13.284 31.215c-1.348 3.389-3.025 5.776-5.029 7.161-1.968 1.385-4.355 2.078-7.162 2.078-1.53 0-3.043-.237-4.537-.711-1.494-.474-2.715-1.13-3.663-1.968l3.116-6.068c.656.583 1.404 1.039 2.242 1.367.874.328 1.731.492 2.569.492 1.166 0 2.114-.292 2.843-.875.729-.547 1.385-1.476 1.968-2.788l.109-.273-12.737-29.63h8.801l8.255 19.954 8.309-19.954h8.2zm22.552 14.104c1.75.547 3.098 1.385 4.046 2.515.984 1.13 1.476 2.478 1.476 4.045 0 1.859-.638 3.499-1.914 4.92-1.275 1.385-3.025 2.46-5.248 3.226-2.223.765-4.738 1.148-7.544 1.148-2.296 0-4.555-.237-6.778-.711-2.224-.474-4.283-1.184-6.178-2.132l2.296-5.959c3.098 1.495 6.524 2.242 10.278 2.242 2.004 0 3.571-.292 4.701-.875 1.166-.62 1.749-1.476 1.749-2.569 0-.948-.401-1.659-1.202-2.132-.802-.511-1.968-.766-3.499-.766h-6.013v-5.302h5.248c1.494 0 2.642-.237 3.444-.711.801-.474 1.202-1.166 1.202-2.077 0-.948-.51-1.677-1.53-2.187-.984-.51-2.406-.765-4.264-.765-2.843 0-5.941.674-9.294 2.022l-2.077-5.904c4.082-1.785 8.054-2.678 11.917-2.678 2.661 0 5.03.328 7.107.984 2.114.656 3.772 1.621 4.975 2.897 1.202 1.239 1.804 2.697 1.804 4.373 0 1.385-.42 2.643-1.258 3.772-.838 1.094-1.986 1.968-3.444 2.624zm24.681 4.155h-4.428V528h-8.528v-29.411h8.528v11.426h4.592l7.981-11.426h9.075l-10.277 14.104L501.575 528h-10.059l-7.872-11.152zm33.01-18.696c4.555 0 8.054 1.093 10.496 3.28 2.441 2.15 3.662 5.412 3.662 9.785V528h-7.981v-3.663c-1.604 2.734-4.592 4.1-8.965 4.1-2.26 0-4.228-.382-5.904-1.148-1.64-.765-2.898-1.822-3.772-3.17-.875-1.349-1.312-2.879-1.312-4.592 0-2.734 1.02-4.884 3.061-6.451 2.077-1.567 5.266-2.351 9.567-2.351h6.778c0-1.858-.565-3.28-1.694-4.264-1.13-1.02-2.825-1.53-5.084-1.53-1.568 0-3.116.255-4.647.765-1.494.474-2.77 1.13-3.827 1.968l-3.061-5.959c1.603-1.129 3.517-2.004 5.74-2.624 2.259-.619 4.574-.929 6.943-.929zm-.656 24.545c1.457 0 2.751-.328 3.881-.984 1.13-.692 1.931-1.694 2.405-3.006V515.7h-5.849c-3.499 0-5.248 1.148-5.248 3.444 0 1.093.419 1.968 1.257 2.624.875.62 2.059.929 3.554.929zm50.66-5.849h-4.428V528h-8.528v-29.411h8.528v11.426h4.592l7.982-11.426h9.074l-10.277 14.104L584.589 528H574.53l-7.872-11.152zm33.01-18.696c4.555 0 8.054 1.093 10.496 3.28 2.442 2.15 3.663 5.412 3.663 9.785V528h-7.982v-3.663c-1.603 2.734-4.592 4.1-8.965 4.1-2.26 0-4.228-.382-5.904-1.148-1.64-.765-2.897-1.822-3.772-3.17-.875-1.349-1.312-2.879-1.312-4.592 0-2.734 1.02-4.884 3.061-6.451 2.078-1.567 5.266-2.351 9.567-2.351h6.779c0-1.858-.565-3.28-1.695-4.264-1.13-1.02-2.825-1.53-5.084-1.53-1.567 0-3.116.255-4.647.765-1.494.474-2.77 1.13-3.826 1.968l-3.062-5.959c1.604-1.129 3.517-2.004 5.74-2.624 2.26-.619 4.574-.929 6.943-.929zm-.656 24.545c1.458 0 2.751-.328 3.881-.984 1.13-.692 1.932-1.694 2.406-3.006V515.7h-5.85c-3.498 0-5.248 1.148-5.248 3.444 0 1.093.419 1.968 1.258 2.624.874.62 2.059.929 3.553.929zm39.552-24.545c2.733 0 5.212.638 7.435 1.913 2.259 1.239 4.027 3.007 5.302 5.303 1.276 2.26 1.914 4.902 1.914 7.927 0 3.025-.638 5.685-1.914 7.981-1.275 2.26-3.043 4.027-5.302 5.303-2.223 1.239-4.702 1.858-7.435 1.858-3.754 0-6.706-1.184-8.856-3.553v13.721h-8.528v-40.016h8.145v3.39c2.114-2.551 5.194-3.827 9.239-3.827zm-1.476 23.288c2.187 0 3.973-.729 5.357-2.187 1.422-1.494 2.132-3.48 2.132-5.958 0-2.479-.71-4.447-2.132-5.904-1.384-1.495-3.17-2.242-5.357-2.242-2.187 0-3.991.747-5.412 2.242-1.385 1.457-2.077 3.425-2.077 5.904 0 2.478.692 4.464 2.077 5.958 1.421 1.458 3.225 2.187 5.412 2.187zm45.745-15.853h-9.949V528h-8.473v-22.413h-9.95v-6.998h28.372v6.998zm20.017 2.405c3.827.036 6.724.893 8.692 2.569 1.968 1.677 2.952 4.082 2.952 7.216 0 3.28-1.112 5.813-3.335 7.599-2.223 1.786-5.375 2.679-9.457 2.679L687.379 528v-29.411h8.474v9.403h6.997zm14.815-9.403h8.473V528h-8.473v-29.411zm-16.728 23.398c1.64.036 2.897-.31 3.772-1.039.874-.729 1.312-1.822 1.312-3.28 0-1.421-.438-2.46-1.312-3.116-.839-.656-2.096-1.002-3.772-1.039l-5.084-.054v8.528h5.084z" fill="#25282B"/></symbol><use xmlns:xlink="http://www.w3.org/1999/xlink" xlink:href="#a"/><use xmlns:xlink="http://www.w3.org/1999/xlink" xlink:href="#b"/></svg>