<svg width="26" height="37" viewBox="0 0 26 37" xmlns="http://www.w3.org/2000/svg" fill="none"><path d="M12.583 0c-6.938 0-12.583 5.931-12.583 13.222 0 9.048 11.26 22.33 11.74 22.891.45.527 1.237.526 1.686 0 .479-.561 11.74-13.843 11.74-22.891 0-7.29-5.645-13.222-12.583-13.222z" fill="#C92A39"/><path fill-rule="evenodd" clip-rule="evenodd" d="M8.587 17.947v-2.039h-1.705l4.116-1.112v-1.637l-4.204-1.081h4.204l-.03-.062h.03v-4.263l1.029 4.294h1.558l1.058-4.325v1.792h1.94v-4.819h-2.793l-1 3.954-.941-3.954h-2.822v5.314h-5.057v2.966l3.763.989-3.763 1.05v2.935h4.616zm7.997-5.87h-1.94 1.94zM21.841 10.216h-7.014v2.013h4.096l-4.096 1.115v1.672l4.185 1.053h-4.185v4.303999999999999l-1.031-4.273h-1.562l-1.061 4.304v-4.304h-1.945v7.37h2.8l.972-3.964.943 3.964h2.829v-5.326h5.069v-2.973l-3.742-.991 3.742-1.053v-2.911z" fill="#fff"/></svg>